<svg width="36" height="33" viewBox="0 0 36 33" fill="none" xmlns="http://www.w3.org/2000/svg">
<g clip-path="url(#clip0_312_7946)">
<g clip-path="url(#clip1_312_7946)">
<path d="M9.23114 0H26.3081L29.5388 5H6.46191L9.23114 0Z" fill="white"/>
<rect y="14" width="36" height="5" fill="white"/>
<path d="M36 5C34.1388 1.89801 30.7866 0 27.169 0H25L28 5H36Z" fill="#FFC83D"/>
<path d="M39 14H32.5V19H39.5L39 14Z" fill="#FFC83D"/>
<path d="M-4 14H3.5V19H-4V14Z" fill="#FFC83D"/>
<path d="M-6.03785 4.6215C-6.28529 2.1471 -4.34219 0 -1.85545 0H2.25H11L8 5H3.5H-5.61961C-5.83555 5 -6.01636 4.83637 -6.03785 4.6215Z" fill="#FFC83D"/>
<path d="M26.3073 33H9.69193L6.46116 28H29.5381L26.3073 33Z" fill="white"/>
<path d="M-1 28C1.52824 31.1603 5.35597 33 9.40312 33H11L8 28H-1Z" fill="#FFC83D"/>
<path d="M37 28C34.4718 31.1603 30.644 33 26.5969 33H25L28 28H37Z" fill="#FFC83D"/>
</g>
</g>
<defs>
<clipPath id="clip0_312_7946">
<rect width="36" height="33" fill="white"/>
</clipPath>
<clipPath id="clip1_312_7946">
<rect y="-3" width="36" height="39" rx="18" fill="white"/>
</clipPath>
</defs>
</svg>
