<svg width="48" height="38" viewBox="0 0 48 38" fill="none" xmlns="http://www.w3.org/2000/svg">
<circle cx="17.6992" cy="18" r="17.5" fill="#131313"/>
<path fill-rule="evenodd" clip-rule="evenodd" d="M30.5758 16.5322C30.0711 16.5322 29.5665 16.5322 29.0618 16.5322C29.0792 16.1618 28.9111 15.9095 28.5571 15.7752C26.9747 15.7584 25.3934 15.7079 23.8131 15.6238C23.0367 13.6194 21.6236 12.2904 19.5738 11.6369C16.6458 10.8746 14.2401 11.6652 12.3569 14.0088C12.0066 14.5112 11.7206 15.0496 11.499 15.6238C9.78439 15.7246 3.7175 15.8088 2.00028 15.7752C1.86947 10.5099 7.5 5.27791 11.9027 2.50218C17.8503 0.493409 23.3008 1.41866 28.2543 5.27791C31.1719 7.83168 33.0393 11.0112 33.8562 14.8163C33.9065 15.1173 33.9233 15.4201 33.9067 15.7247C32.9641 15.708 32.0219 15.7248 31.0805 15.7752C30.7485 15.9175 30.5803 16.1699 30.5758 16.5322Z" fill="white"/>
<path fill-rule="evenodd" clip-rule="evenodd" d="M11.9973 2.50293C8.16559 6.05264 6.31504 10.4602 6.44585 15.7255C4.79727 15.7255 3.14858 15.7255 1.5 15.7255C2.35089 10.1475 5.24441 5.99238 10.1805 3.25995C10.7767 2.97848 11.3823 2.72614 11.9973 2.50293Z" fill="#DFD2F1"/>
<path opacity="0.948" fill-rule="evenodd" clip-rule="evenodd" d="M0.0126953 2.10793C0.0126953 1.7798 0.0126953 1.45166 0.0126953 1.12353C0.28777 0.649183 0.792448 0.310156 1.52673 0.10632C2.49627 0.00413915 3.47198 -0.0177801 4.45386 0.0406931C6.03779 0.351107 6.66023 1.04019 6.32117 2.10793C6.01683 2.69949 5.39439 3.06043 4.45386 3.19077C3.47198 3.24924 2.49627 3.22732 1.52673 3.12514C0.792448 2.92131 0.28777 2.58228 0.0126953 2.10793Z" fill="#131313"/>
<path fill-rule="evenodd" clip-rule="evenodd" d="M21.3902 21.2765C20.9467 21.2418 20.5093 21.1745 20.0781 21.0746C21.5737 19.636 21.927 17.9537 21.1379 16.0278C19.9313 14.1954 18.2659 13.5898 16.1416 14.211C16.2155 13.7874 16.3501 13.3836 16.5453 12.9998C19.7292 12.5828 21.7647 13.9286 22.6519 17.0372C22.8556 18.6464 22.4351 20.0595 21.3902 21.2765Z" fill="#4D4D71"/>
<path fill-rule="evenodd" clip-rule="evenodd" d="M16.5456 12.999C16.3504 13.3829 16.2158 13.7866 16.1419 14.2103C13.8928 15.4811 13.2368 17.3316 14.1736 19.7617C15.7386 21.9561 17.7069 22.3934 20.0784 21.0739C20.5096 21.1738 20.947 21.241 21.3905 21.2757C20.0628 22.6348 18.4479 23.1564 16.5456 22.8402C13.7555 21.9228 12.4602 19.9882 12.6596 17.0364C13.1225 14.8747 14.4178 13.5289 16.5456 12.999Z" fill="#3C416A"/>
<path fill-rule="evenodd" clip-rule="evenodd" d="M2.23304 1.0835C2.87318 1.07437 3.51244 1.0835 4.15082 1.11097C4.89498 1.29556 5.04638 1.57945 4.60503 1.96275C4.17311 2.10003 3.70209 2.15498 3.19193 2.12761C2.50911 2.20455 1.97078 2.09464 1.57696 1.79789C1.42309 1.45251 1.64178 1.2144 2.23304 1.0835Z" fill="#EBC968"/>
<path fill-rule="evenodd" clip-rule="evenodd" d="M20.0787 21.0751C17.7073 22.3946 15.739 21.9573 14.174 19.7629C13.2371 17.3328 13.8932 15.4824 16.1422 14.2115C18.2665 13.5903 19.932 14.1959 21.1386 16.0283C21.9277 17.9542 21.5744 19.6365 20.0787 21.0751Z" fill="#131313"/>
<path fill-rule="evenodd" clip-rule="evenodd" d="M19.17 19.7619C17.7019 19.5898 16.7766 18.7824 16.3943 17.3395C16.321 16.8296 16.3379 16.3249 16.4448 15.8254C17.2283 15.4404 18.0358 15.4235 18.8672 15.775C20.1037 16.6586 20.3896 17.7857 19.7252 19.1563C19.5908 19.4083 19.4058 19.6101 19.17 19.7619Z" fill="#F2CF6B"/>
<path fill-rule="evenodd" clip-rule="evenodd" d="M16.4444 15.8262C16.3375 16.3256 16.3207 16.8303 16.3939 17.3402C16.7763 18.7831 17.7016 19.5906 19.1697 19.7626C18.5118 20.2332 17.7715 20.3846 16.9491 20.2169C15.654 19.6967 15.0988 18.7379 15.2836 17.3402C15.4783 16.6787 15.8652 16.174 16.4444 15.8262Z" fill="#F5BA37"/>
<path fill-rule="evenodd" clip-rule="evenodd" d="M29.0617 16.5322C29.5664 16.5322 30.0711 16.5322 30.5757 16.5322C30.6101 16.8527 30.7783 17.0713 31.0804 17.1883C32.0892 17.2388 33.0985 17.2555 34.1085 17.2388C34.1085 17.7098 34.1085 18.1808 34.1085 18.6519C30.8112 18.6519 27.5141 18.6519 24.2168 18.6519C24.2168 18.1808 24.2168 17.7098 24.2168 17.2388C25.6639 17.2556 27.1107 17.2388 28.557 17.1883C28.8633 17.0681 29.0315 16.8494 29.0617 16.5322Z" fill="#AA9CD5"/>
<path fill-rule="evenodd" clip-rule="evenodd" d="M1.20312 17.2383C4.50039 17.2383 7.79756 17.2383 11.0948 17.2383C11.0948 17.7093 11.0948 18.1803 11.0948 18.6514C7.79756 18.6514 4.50039 18.6514 1.20312 18.6514C1.20312 18.1803 1.20312 17.7093 1.20312 17.2383Z" fill="#A79AD3"/>
<path fill-rule="evenodd" clip-rule="evenodd" d="M2 20.2267C3.51444 20.2099 9.92886 20.1762 11.4425 20.2267C13.0916 23.6419 15.7832 24.954 19.5173 24.1632C21.5473 23.5127 22.9604 22.2005 23.7566 20.2267C27.121 20.1762 30.4855 20.1594 33.8502 20.1762C32.9931 25.6731 30.1333 29.7441 25.2707 32.3894C24.2964 32.4815 20.9771 33.5584 20 33.5C12.2691 32.6481 4.56457 27.5506 2 20.2267Z" fill="white"/>
<path fill-rule="evenodd" clip-rule="evenodd" d="M7.05146 20.165C9.61604 27.4889 14.7638 31.5768 22.4946 32.4287C23.4717 32.4872 24.4474 32.4703 25.4218 32.3783C22.3695 34.0201 19.1058 34.6425 15.631 34.2456C10.4156 33.4324 6.41183 30.8081 3.61965 26.3726C3.32149 26.1991 3.01868 26.1823 2.71123 26.3221C2.482 25.8973 2.28013 25.4599 2.10561 25.01C2.34635 24.7978 2.48089 24.5286 2.50936 24.2025C2.0066 22.9004 1.67018 21.5546 1.5 20.165C3.35045 20.165 5.20101 20.165 7.05146 20.165Z" fill="#DFD2F1"/>
<path opacity="0.957" fill-rule="evenodd" clip-rule="evenodd" d="M0.923203 34.0043C2.97449 33.9928 5.02571 34.0043 7.0768 34.0386C7.83369 34.3495 8.12518 34.9327 7.95126 35.7881C7.80467 36.2407 7.51318 36.5266 7.0768 36.6457C5.02558 36.6914 2.97442 36.6914 0.923203 36.6457C0.166311 36.3348 -0.125175 35.7516 0.0487448 34.8962C0.206925 34.4426 0.498411 34.1453 0.923203 34.0043Z" fill="#131313"/>
<path fill-rule="evenodd" clip-rule="evenodd" d="M1.60498 34.9063C3.16813 34.8906 4.73116 34.9063 6.29409 34.9534C6.50353 35.218 6.50353 35.4692 6.29409 35.7071C4.73105 35.77 3.16802 35.77 1.60498 35.7071C1.3999 35.4537 1.3999 35.1868 1.60498 34.9063Z" fill="#DDBD62"/>
<path d="M25.44 9.56H29.736V26.096H34.2V29H25.44V9.56ZM35.9606 11.18H40.4706C42.0106 11.18 43.2133 11.3707 44.0786 11.752C44.944 12.1333 45.5526 12.7347 45.9046 13.556C46.2713 14.3627 46.4546 15.448 46.4546 16.812V23.28C46.4546 24.6587 46.2713 25.7587 45.9046 26.58C45.5526 27.4013 44.944 28.01 44.0786 28.406C43.228 28.802 42.04 29 40.5146 29H35.9606V11.18ZM40.5146 26.272C41.0866 26.272 41.5046 26.1913 41.7686 26.03C42.0473 25.854 42.2233 25.612 42.2966 25.304C42.37 24.9813 42.4066 24.512 42.4066 23.896V16.13C42.4066 15.558 42.3626 15.1253 42.2746 14.832C42.2013 14.524 42.0253 14.2967 41.7466 14.15C41.4826 14.0033 41.0646 13.93 40.4926 13.93H39.8986V26.272H40.5146Z" fill="url(#paint0_linear_312_7892)"/>
<path d="M25.44 9.56V8.76H24.64V9.56H25.44ZM29.736 9.56H30.536V8.76H29.736V9.56ZM29.736 26.096H28.936V26.896H29.736V26.096ZM34.2 26.096H35V25.296H34.2V26.096ZM34.2 29V29.8H35V29H34.2ZM25.44 29H24.64V29.8H25.44V29ZM25.44 10.36H29.736V8.76H25.44V10.36ZM28.936 9.56V26.096H30.536V9.56H28.936ZM29.736 26.896H34.2V25.296H29.736V26.896ZM33.4 26.096V29H35V26.096H33.4ZM34.2 28.2H25.44V29.8H34.2V28.2ZM26.24 29V9.56H24.64V29H26.24ZM35.9606 11.18V10.38H35.1606V11.18H35.9606ZM45.9046 13.556L45.1693 13.8711L45.1727 13.8791L45.1763 13.887L45.9046 13.556ZM45.9046 26.58L45.174 26.2538L45.1693 26.2649L45.9046 26.58ZM44.0786 28.406L43.7457 27.6785L43.741 27.6807L44.0786 28.406ZM35.9606 29H35.1606V29.8H35.9606V29ZM41.7686 26.03L42.1858 26.7127L42.1958 26.7064L41.7686 26.03ZM42.2966 25.304L43.0749 25.4893L43.0767 25.4813L42.2966 25.304ZM42.2746 14.832L41.4964 15.0173L41.5017 15.0398L41.5084 15.0619L42.2746 14.832ZM41.7466 14.15L41.3581 14.8493L41.366 14.8537L41.374 14.8579L41.7466 14.15ZM39.8986 13.93V13.13H39.0986V13.93H39.8986ZM39.8986 26.272H39.0986V27.072H39.8986V26.272ZM35.9606 11.98H40.4706V10.38H35.9606V11.98ZM40.4706 11.98C41.9609 11.98 43.0365 12.167 43.756 12.4841L44.4012 11.0199C43.3901 10.5743 42.0603 10.38 40.4706 10.38V11.98ZM43.756 12.4841C44.4478 12.7889 44.9021 13.2476 45.1693 13.8711L46.6399 13.2409C46.2032 12.2217 45.4401 11.4777 44.4012 11.0199L43.756 12.4841ZM45.1763 13.887C45.4772 14.5489 45.6546 15.5067 45.6546 16.812H47.2546C47.2546 15.3893 47.0654 14.1764 46.6329 13.225L45.1763 13.887ZM45.6546 16.812V23.28H47.2546V16.812H45.6546ZM45.6546 23.28C45.6546 24.6003 45.4772 25.5751 45.1741 26.2539L46.6351 26.9061C47.0654 25.9423 47.2546 24.7171 47.2546 23.28H45.6546ZM45.1693 26.2649C44.901 26.891 44.4432 27.3594 43.7457 27.6786L44.4115 29.1334C45.4447 28.6606 46.2043 27.9117 46.6399 26.8951L45.1693 26.2649ZM43.741 27.6807C43.042 28.0061 41.9877 28.2 40.5146 28.2V29.8C42.0922 29.8 43.4139 29.5979 44.4162 29.1313L43.741 27.6807ZM40.5146 28.2H35.9606V29.8H40.5146V28.2ZM36.7606 29V11.18H35.1606V29H36.7606ZM40.5146 27.072C41.1275 27.072 41.7289 26.9918 42.1858 26.7126L41.3515 25.3474C41.2803 25.3909 41.0458 25.472 40.5146 25.472V27.072ZM42.1958 26.7064C42.6431 26.4239 42.951 26.0096 43.0749 25.4893L41.5184 25.1187C41.4956 25.2144 41.4515 25.2841 41.3414 25.3536L42.1958 26.7064ZM43.0767 25.4813C43.1701 25.0704 43.2066 24.53 43.2066 23.896H41.6066C41.6066 24.494 41.5698 24.8922 41.5165 25.1267L43.0767 25.4813ZM43.2066 23.896V16.13H41.6066V23.896H43.2066ZM43.2066 16.13C43.2066 15.5352 43.1629 15.0089 43.0409 14.6021L41.5084 15.0619C41.5623 15.2417 41.6066 15.5808 41.6066 16.13H43.2066ZM43.0529 14.6467C42.9264 14.1155 42.6034 13.6969 42.1192 13.4421L41.374 14.8579C41.4471 14.8964 41.4762 14.9325 41.4964 15.0173L43.0529 14.6467ZM42.1351 13.4507C41.6873 13.2019 41.0991 13.13 40.4926 13.13V14.73C41.0302 14.73 41.278 14.8048 41.3581 14.8493L42.1351 13.4507ZM40.4926 13.13H39.8986V14.73H40.4926V13.13ZM39.0986 13.93V26.272H40.6986V13.93H39.0986ZM39.8986 27.072H40.5146V25.472H39.8986V27.072Z" fill="#131313"/>
<path opacity="0.957" fill-rule="evenodd" clip-rule="evenodd" d="M31.9232 31.0043C33.9745 30.9928 36.0257 31.0043 38.0768 31.0386C38.8337 31.3495 39.1252 31.9327 38.9513 32.7881C38.8047 33.2407 38.5132 33.5266 38.0768 33.6457C36.0256 33.6914 33.9744 33.6914 31.9232 33.6457C31.1663 33.3348 30.8748 32.7516 31.0487 31.8962C31.2069 31.4426 31.4984 31.1453 31.9232 31.0043Z" fill="#131313"/>
<path fill-rule="evenodd" clip-rule="evenodd" d="M32.605 31.9063C34.1681 31.8906 35.7312 31.9063 37.2941 31.9534C37.5035 32.218 37.5035 32.4692 37.2941 32.7071C35.7311 32.77 34.168 32.77 32.605 32.7071C32.3999 32.4537 32.3999 32.1868 32.605 31.9063Z" fill="#DDBD62"/>
<defs>
<linearGradient id="paint0_linear_312_7892" x1="24" y1="25.5" x2="55.5" y2="15.5" gradientUnits="userSpaceOnUse">
<stop stop-color="#E6DCF4"/>
<stop offset="0.566781" stop-color="white"/>
</linearGradient>
</defs>
</svg>
