<svg width="155" height="48" viewBox="0 0 155 48" fill="none" xmlns="http://www.w3.org/2000/svg">
<g clip-path="url(#clip0_395_10149)">
<g filter="url(#filter0_d_395_10149)">
<path d="M81.071 19.23H84.488C85.678 19.23 86.5393 19.553 87.072 20.199C87.616 20.845 87.888 21.7913 87.888 23.038C87.888 24.16 87.599 25.0327 87.021 25.656C86.443 26.2793 85.6043 26.591 84.505 26.591H82.992V33H81.071V19.23ZM83.876 25.214C84.4427 25.214 84.879 25.1517 85.185 25.027C85.5023 24.9023 85.729 24.687 85.865 24.381C86.001 24.075 86.069 23.633 86.069 23.055C86.069 22.3523 86.018 21.8367 85.916 21.508C85.814 21.1793 85.61 20.947 85.304 20.811C85.0093 20.675 84.539 20.607 83.893 20.607H82.992V25.214H83.876ZM92.488 33.144C91.2186 33.144 90.3066 32.7867 89.752 32.072C89.208 31.3467 88.936 30.3013 88.936 28.936V24.024C88.936 22.68 89.2133 21.6613 89.768 20.968C90.3226 20.2747 91.2293 19.928 92.488 19.928C93.7466 19.928 94.648 20.28 95.192 20.984C95.7466 21.6773 96.024 22.6907 96.024 24.024V28.952C96.024 30.296 95.7466 31.3307 95.192 32.056C94.6373 32.7813 93.736 33.144 92.488 33.144ZM92.488 31.72C93.16 31.72 93.6133 31.5227 93.848 31.128C94.0826 30.7333 94.2 30.136 94.2 29.336V23.656C94.2 22.8667 94.0826 22.2853 93.848 21.912C93.6133 21.528 93.16 21.336 92.488 21.336C91.8053 21.336 91.3466 21.528 91.112 21.912C90.8773 22.2853 90.76 22.8667 90.76 23.656V29.336C90.76 30.136 90.8773 30.7333 91.112 31.128C91.3466 31.5227 91.8053 31.72 92.488 31.72ZM97.738 20.85H99.433V26.58L102.223 20.85H103.798L101.398 26.205L104.188 33H102.538L100.213 27.3L99.433 28.71V33H97.738V20.85ZM105.102 21.66H109.498V22.836H106.684V26.588H108.966V27.708H106.684V31.866H109.526V33H105.102V21.66ZM111.061 20.85H112.726L114.871 30.705L117.031 20.85H118.681L118.906 33H117.541L117.406 24.18L115.351 33H114.391L112.351 24.18L112.216 33H110.836L111.061 20.85ZM124.143 33.144C122.874 33.144 121.962 32.7867 121.407 32.072C120.863 31.3467 120.591 30.3013 120.591 28.936V24.024C120.591 22.68 120.869 21.6613 121.423 20.968C121.978 20.2747 122.885 19.928 124.143 19.928C125.402 19.928 126.303 20.28 126.847 20.984C127.402 21.6773 127.679 22.6907 127.679 24.024V28.952C127.679 30.296 127.402 31.3307 126.847 32.056C126.293 32.7813 125.391 33.144 124.143 33.144ZM124.143 31.72C124.815 31.72 125.269 31.5227 125.503 31.128C125.738 30.7333 125.855 30.136 125.855 29.336V23.656C125.855 22.8667 125.738 22.2853 125.503 21.912C125.269 21.528 124.815 21.336 124.143 21.336C123.461 21.336 123.002 21.528 122.767 21.912C122.533 22.2853 122.415 22.8667 122.415 23.656V29.336C122.415 30.136 122.533 30.7333 122.767 31.128C123.002 31.5227 123.461 31.72 124.143 31.72ZM129.519 19.23H130.828L134.738 28.376V19.23H136.336V33H135.112L131.151 23.599V33H129.519V19.23Z" fill="#FFC83D"/>
<path d="M138.263 30.977H140.082V33H138.263V30.977ZM141.453 22.47H143.572C144.638 22.47 145.418 22.691 145.912 23.133C146.414 23.5663 146.666 24.277 146.666 25.265C146.666 26.617 146.232 27.436 145.366 27.722L146.861 33H145.444L144.066 28.06H142.922V33H141.453V22.47ZM143.481 27.007C144.113 27.007 144.564 26.8813 144.833 26.63C145.11 26.3787 145.249 25.9237 145.249 25.265C145.249 24.8317 145.201 24.4937 145.106 24.251C145.01 23.9997 144.841 23.8177 144.599 23.705C144.356 23.5837 144.014 23.523 143.572 23.523H142.922V27.007H143.481ZM150.911 33.117C150.174 33.117 149.598 32.9697 149.182 32.675C148.775 32.3803 148.493 31.9687 148.337 31.44C148.181 30.9113 148.103 30.2483 148.103 29.451V22.47H149.507V29.516C149.507 30.3133 149.598 30.92 149.78 31.336C149.971 31.752 150.348 31.96 150.911 31.96C151.474 31.96 151.847 31.752 152.029 31.336C152.22 30.92 152.315 30.3133 152.315 29.516V22.47H153.706V29.451C153.706 30.2483 153.628 30.9113 153.472 31.44C153.316 31.9687 153.034 32.3803 152.627 32.675C152.22 32.9697 151.648 33.117 150.911 33.117Z" fill="white"/>
</g>
<g clip-path="url(#clip1_395_10149)">
<path opacity="0.954" fill-rule="evenodd" clip-rule="evenodd" d="M18.0902 0.120171C20.0843 0.0726126 22.0715 0.124004 24.0516 0.274346C25.3091 0.926581 25.7032 1.93729 25.2336 3.30647C24.9085 3.90714 24.4118 4.30115 23.7433 4.48848C21.7495 4.5874 19.7623 4.55314 17.7818 4.3857C16.6271 3.83875 16.1989 2.93083 16.497 1.66193C16.7543 0.858055 17.2854 0.344136 18.0902 0.120171Z" fill="#131313"/>
<path fill-rule="evenodd" clip-rule="evenodd" d="M18.3983 1.66218C20.0775 1.64506 21.7562 1.66219 23.4347 1.71357C23.9828 2.12471 23.9828 2.53584 23.4347 2.94698C21.7559 3.0155 20.0771 3.0155 18.3983 2.94698C17.8568 2.51914 17.8568 2.09087 18.3983 1.66218Z" fill="#E5C465"/>
<path opacity="0.974" fill-rule="evenodd" clip-rule="evenodd" d="M52.6253 20.5743C52.6253 21.9105 52.6253 23.2467 52.6253 24.5829C51.5959 31.4909 47.9299 36.4416 41.6274 39.4351C34.987 42.009 28.7856 41.221 23.0236 37.0711C22.4411 36.5572 21.8587 36.0432 21.2762 35.5293C16.2741 35.4951 11.272 35.4608 6.26981 35.4265C4.70252 34.9148 4.06869 33.8355 4.36831 32.1888C4.69555 31.28 5.32939 30.7147 6.26981 30.4929C8.42827 30.4587 10.5867 30.4244 12.7452 30.3901C13.3008 30.1866 13.4892 29.7925 13.3105 29.2081C13.2144 28.9407 13.026 28.7865 12.7452 28.7456C9.93076 28.7421 7.12134 28.6735 4.31692 28.54C2.80559 27.7238 2.37733 26.5075 3.03212 24.8912C3.44527 24.2818 4.01058 23.8878 4.72805 23.7092C7.50957 23.7065 10.2847 23.638 13.0535 23.5036C13.4647 23.0239 13.4647 22.5443 13.0535 22.0646C12.1019 21.9361 11.1426 21.8675 10.1756 21.8591C8.87163 21.5492 8.22067 20.7269 8.2227 19.3923C8.22067 18.0576 8.87163 17.2354 10.1756 16.9255C11.1426 16.917 12.1019 16.8485 13.0535 16.7199C13.4647 16.2402 13.4647 15.7606 13.0535 15.2809C12.9507 15.2467 12.848 15.2124 12.7452 15.1781C9.14775 15.1439 5.55032 15.1096 1.95289 15.0754C0.993243 14.8515 0.34228 14.2862 0 13.3794C0 12.8655 0 12.3516 0 11.8377C0.34228 10.9309 0.993243 10.3656 1.95289 10.1417C8.29122 10.1075 14.6295 10.0732 20.9679 10.039C25.4806 5.4054 30.9625 3.55529 37.4133 4.48863C43.6847 5.72875 48.2244 9.2063 51.0321 14.9212C51.8286 16.7434 52.3597 18.6279 52.6253 20.5743Z" fill="#131313"/>
<path fill-rule="evenodd" clip-rule="evenodd" d="M47.4862 21.1908C46.9723 21.1908 46.4584 21.1908 45.9445 21.1908C45.9623 20.8136 45.791 20.5566 45.4306 20.4199C43.8192 20.4028 42.2089 20.3514 40.5997 20.2658C39.8091 18.2247 38.3701 16.8713 36.2828 16.2058C33.3012 15.4296 30.8514 16.2347 28.9338 18.6212C28.577 19.1328 28.2858 19.681 28.0601 20.2658C26.3141 20.3684 20.2492 20.4028 18.5006 20.3685C18.3674 15.0068 23.5 9.73043 28.4712 6.90388C34.5277 4.85833 40.078 5.80052 45.1222 9.73043C48.0933 12.331 49.9948 15.5686 50.8267 19.4435C50.8779 19.75 50.8951 20.0583 50.8781 20.3685C49.9182 20.3515 48.9588 20.3685 48.0002 20.4199C47.6621 20.5649 47.4908 20.8218 47.4862 21.1908Z" fill="white"/>
<path fill-rule="evenodd" clip-rule="evenodd" d="M28.4708 6.90381C24.5689 10.5185 22.6844 15.0068 22.8177 20.3685C21.1389 20.3685 19.46 20.3685 17.7812 20.3685C18.6477 14.6883 21.5942 10.4571 26.6207 7.67469C27.2278 7.38806 27.8445 7.1311 28.4708 6.90381Z" fill="#DFD2F1"/>
<path fill-rule="evenodd" clip-rule="evenodd" d="M2.26172 11.7349C8.03489 11.5981 13.825 11.5981 19.6322 11.7349C19.6194 11.7973 19.5852 11.8315 19.5294 11.8377C18.9666 11.7361 18.3842 11.7018 17.7821 11.7349C12.6086 11.7349 7.43516 11.7349 2.26172 11.7349Z" fill="#736130"/>
<path fill-rule="evenodd" clip-rule="evenodd" d="M2.26094 11.7349C7.43439 11.7349 12.6079 11.7349 17.7813 11.7349C15.8976 14.6795 14.8355 17.9 14.595 21.3965C14.2473 20.8957 13.7676 20.5703 13.156 20.4201C12.2652 20.3859 11.3745 20.3515 10.4836 20.3173C9.77526 20.0243 9.58682 19.5275 9.91833 18.8269C10.0807 18.6686 10.2691 18.5486 10.4836 18.4672C11.3745 18.433 12.2652 18.3986 13.156 18.3644C14.5515 17.8875 15.1511 16.9111 14.9547 15.4351C14.6978 14.4929 14.0982 13.8933 13.156 13.6364C9.52433 13.6021 5.89263 13.5678 2.26094 13.5336C1.55256 13.2405 1.36412 12.7438 1.69563 12.0432C1.84854 11.8726 2.03698 11.7698 2.26094 11.7349Z" fill="#F2CF6B"/>
<path fill-rule="evenodd" clip-rule="evenodd" d="M17.782 11.7349C18.3841 11.7018 18.9666 11.736 19.5293 11.8376C15.7746 17.3503 15.0723 23.2433 17.4223 29.5165C17.6839 29.7925 18.0095 29.8953 18.3987 29.8248C18.5764 30.283 18.782 30.7284 19.0154 31.161C18.7271 31.4432 18.6414 31.7858 18.7584 32.1888C19.1192 32.7057 19.479 33.2197 19.8377 33.7306C19.2749 33.8322 18.6925 33.8665 18.0903 33.8334C16.0814 30.8903 14.9508 27.6355 14.6985 24.0689C15.1413 23.1551 15.1071 22.2642 14.5957 21.3965C14.8362 17.9 15.8983 14.6795 17.782 11.7349Z" fill="#F5BA37"/>
<path opacity="0.948" fill-rule="evenodd" clip-rule="evenodd" d="M0 20.1631C0 19.6492 0 19.1353 0 18.6214C0.280111 17.8785 0.79403 17.3475 1.54176 17.0282C2.52904 16.8682 3.52262 16.8339 4.52248 16.9255C6.13541 17.4116 6.76924 18.4909 6.42398 20.1631C6.11407 21.0896 5.48023 21.6549 4.52248 21.8591C3.52262 21.9507 2.52904 21.9163 1.54176 21.7563C0.79403 21.437 0.280111 20.9061 0 20.1631Z" fill="#131313"/>
<path fill-rule="evenodd" clip-rule="evenodd" d="M38.1328 26.0217C37.6812 25.9863 37.2357 25.9179 36.7966 25.8161C38.3197 24.3511 38.6794 22.638 37.8759 20.6769C36.6472 18.811 34.9513 18.1943 32.7881 18.8268C32.8633 18.3954 33.0004 17.9843 33.1992 17.5934C36.4413 17.1688 38.5142 18.5392 39.4176 21.7047C39.625 23.3434 39.1968 24.7824 38.1328 26.0217Z" fill="#4D4D71"/>
<path fill-rule="evenodd" clip-rule="evenodd" d="M33.1992 17.5933C33.0004 17.9841 32.8633 18.3953 32.788 18.8267C30.4978 20.1208 29.8297 22.0051 30.7838 24.4798C32.3774 26.7143 34.3817 27.1596 36.7966 25.816C37.2357 25.9177 37.6812 25.9862 38.1328 26.0215C36.7808 27.4055 35.1362 27.9366 33.1992 27.6147C30.3579 26.6805 29.0389 24.7104 29.242 21.7046C29.7134 19.5033 31.0324 18.1329 33.1992 17.5933Z" fill="#3C416A"/>
<path fill-rule="evenodd" clip-rule="evenodd" d="M2.26155 18.4156C2.91341 18.3985 3.56437 18.4156 4.21444 18.467C4.97222 18.8122 5.1264 19.3432 4.67697 20.0601C4.23714 20.3169 3.75749 20.4196 3.23799 20.3685C2.54267 20.5124 1.99449 20.3068 1.59345 19.7518C1.43677 19.1058 1.65946 18.6604 2.26155 18.4156Z" fill="#EBC968"/>
<path fill-rule="evenodd" clip-rule="evenodd" d="M36.797 25.8159C34.3821 27.1596 32.3778 26.7142 30.7841 24.4797C29.8301 22.0051 30.4982 20.1208 32.7884 18.8266C34.9516 18.1941 36.6475 18.8108 37.8762 20.6767C38.6797 22.6378 38.32 24.3509 36.797 25.8159Z" fill="#131313"/>
<path fill-rule="evenodd" clip-rule="evenodd" d="M35.8711 24.4802C34.3761 24.3049 33.4339 23.4826 33.0445 22.0134C32.9699 21.4941 32.9871 20.9802 33.0959 20.4716C33.8938 20.0795 34.7161 20.0623 35.5627 20.4202C36.8218 21.32 37.113 22.4678 36.4364 23.8635C36.2996 24.12 36.1112 24.3256 35.8711 24.4802Z" fill="#F2CF6B"/>
<path fill-rule="evenodd" clip-rule="evenodd" d="M33.0962 20.4712C32.9873 20.9798 32.9702 21.4937 33.0448 22.0129C33.4341 23.4822 34.3763 24.3045 35.8713 24.4797C35.2014 24.9589 34.4476 25.1131 33.6101 24.9423C32.2913 24.4126 31.726 23.4362 31.9142 22.0129C32.1124 21.3393 32.5064 20.8254 33.0962 20.4712Z" fill="#F5BA37"/>
<path fill-rule="evenodd" clip-rule="evenodd" d="M45.9444 21.1909C46.4583 21.1909 46.9722 21.1909 47.4861 21.1909C47.5211 21.5173 47.6924 21.7399 48 21.859C49.0273 21.9104 50.0551 21.9275 51.0835 21.9104C51.0835 22.3901 51.0835 22.8697 51.0835 23.3494C47.7259 23.3494 44.3684 23.3494 41.0107 23.3494C41.0107 22.8697 41.0107 22.3901 41.0107 21.9104C42.4844 21.9276 43.9577 21.9104 45.4304 21.859C45.7423 21.7366 45.9136 21.5139 45.9444 21.1909Z" fill="#AA9CD5"/>
<path fill-rule="evenodd" clip-rule="evenodd" d="M17.5762 21.9102C20.9338 21.9102 24.2913 21.9102 27.649 21.9102C27.649 22.3898 27.649 22.8694 27.649 23.3491C24.2913 23.3491 20.9338 23.3491 17.5762 23.3491C17.5762 22.8694 17.5762 22.3898 17.5762 21.9102Z" fill="#A79AD3"/>
<path fill-rule="evenodd" clip-rule="evenodd" d="M14.698 24.0688C14.9503 27.6354 16.081 30.8902 18.0899 33.8333C14.2526 33.8333 10.4153 33.8333 6.57809 33.8333C6.12021 33.7098 5.88037 33.4014 5.8586 32.9082C5.92524 32.4813 6.16506 32.19 6.57809 32.0346C8.77081 32.0004 10.9636 31.966 13.1562 31.9318C14.5517 31.4549 15.1513 30.4784 14.955 29.0025C14.698 28.0602 14.0985 27.4607 13.1562 27.2038C10.4496 27.1695 7.74297 27.1352 5.03633 27.101C4.32795 26.8079 4.13952 26.3112 4.47102 25.6106C4.63335 25.4522 4.82179 25.3323 5.03633 25.2509C7.74297 25.2166 10.4496 25.1823 13.1562 25.1481C13.8215 24.9882 14.3354 24.6285 14.698 24.0688Z" fill="#F0CD6A"/>
<path fill-rule="evenodd" clip-rule="evenodd" d="M18.5 24.9426C20.0422 24.9254 26.5185 24.8912 28.0598 24.9426C29.7391 28.4203 32.4801 29.7565 36.2825 28.9512C38.3496 28.2887 39.7886 26.9525 40.5995 24.9426C44.0254 24.8912 47.4515 24.874 50.8778 24.8912C50.005 30.4887 47.0928 34.6343 42.1412 37.328C41.149 37.4218 37.2775 39.0595 36.2825 39C28.4101 38.1325 21.1115 32.4006 18.5 24.9426Z" fill="white"/>
<path fill-rule="evenodd" clip-rule="evenodd" d="M23.4344 24.8911C26.0459 32.3491 31.2879 36.5118 39.1603 37.3793C40.1552 37.4389 41.1488 37.4217 42.141 37.3279C39.0328 38.9998 35.7094 39.6337 32.171 39.2294C26.8601 38.4014 22.783 35.729 19.9397 31.2123C19.6361 31.0356 19.3277 31.0186 19.0147 31.1609C18.7812 30.7283 18.5757 30.2829 18.398 29.8247C18.6431 29.6087 18.7801 29.3346 18.8091 29.0025C18.2971 27.6766 17.9545 26.3061 17.7812 24.8911C19.6656 24.8911 21.55 24.8911 23.4344 24.8911Z" fill="#DFD2F1"/>
<path fill-rule="evenodd" clip-rule="evenodd" d="M19.8372 33.7305C19.893 33.7366 19.9273 33.7709 19.94 33.8332C15.4691 33.97 11.0152 33.97 6.57812 33.8332C10.4153 33.8332 14.2527 33.8332 18.0899 33.8332C18.692 33.8663 19.2745 33.8321 19.8372 33.7305Z" fill="#836E37"/>
<path opacity="0.957" fill-rule="evenodd" clip-rule="evenodd" d="M4.42003 41.5421C7.67503 41.5249 10.9298 41.5421 14.1845 41.5935C15.3855 42.0593 15.848 42.933 15.5721 44.2145C15.3395 44.8925 14.8769 45.3208 14.1845 45.4993C10.9296 45.5678 7.67485 45.5678 4.42003 45.4993C3.21895 45.0334 2.75642 44.1598 3.03245 42.8783C3.28349 42.1987 3.74602 41.7533 4.42003 41.5421Z" fill="#131313"/>
<path fill-rule="evenodd" clip-rule="evenodd" d="M4.83047 43.0836C7.81139 43.0664 10.7921 43.0836 13.7727 43.135C14.1721 43.4236 14.1721 43.6976 13.7727 43.9572C10.7919 44.0258 7.8112 44.0258 4.83047 43.9572C4.43932 43.6808 4.43932 43.3896 4.83047 43.0836Z" fill="#DDBD62"/>
<path opacity="0.957" fill-rule="evenodd" clip-rule="evenodd" d="M26.21 44.0089C29.465 43.9917 32.7198 44.0089 35.9745 44.0603C37.1755 44.5261 37.638 45.3997 37.3621 46.6812C37.1295 47.3593 36.6669 47.7876 35.9745 47.966C32.7196 48.0346 29.4649 48.0346 26.21 47.966C25.009 47.5002 24.5465 46.6266 24.8225 45.3451C25.0735 44.6655 25.536 44.2201 26.21 44.0089Z" fill="#131313"/>
<path fill-rule="evenodd" clip-rule="evenodd" d="M26.6214 45.5504C29.6024 45.5332 32.5831 45.5504 35.5636 45.6018C35.963 45.8904 35.963 46.1644 35.5636 46.424C32.5829 46.4926 29.6022 46.4926 26.6214 46.424C26.2304 46.1476 26.2304 45.8564 26.6214 45.5504Z" fill="#DDBD62"/>
</g>
<g filter="url(#filter1_i_395_10149)">
<path d="M54.56 12.94H59.214V30.854H64.05V34H54.56V12.94ZM65.9673 14.56H70.8873C72.5673 14.56 73.8793 14.768 74.8233 15.184C75.7673 15.6 76.4313 16.256 76.8153 17.152C77.2153 18.032 77.4153 19.216 77.4153 20.704V27.76C77.4153 29.264 77.2153 30.464 76.8153 31.36C76.4313 32.256 75.7673 32.92 74.8233 33.352C73.8953 33.784 72.5993 34 70.9353 34H65.9673V14.56ZM70.9353 31.024C71.5593 31.024 72.0153 30.936 72.3033 30.76C72.6073 30.568 72.7993 30.304 72.8793 29.968C72.9593 29.616 72.9993 29.104 72.9993 28.432V19.96C72.9993 19.336 72.9513 18.864 72.8553 18.544C72.7753 18.208 72.5833 17.96 72.2793 17.8C71.9913 17.64 71.5353 17.56 70.9113 17.56H70.2633V31.024H70.9353Z" fill="white"/>
</g>
<path d="M54.56 12.94V11.94H53.56V12.94H54.56ZM59.214 12.94H60.214V11.94H59.214V12.94ZM59.214 30.854H58.214V31.854H59.214V30.854ZM64.05 30.854H65.05V29.854H64.05V30.854ZM64.05 34V35H65.05V34H64.05ZM54.56 34H53.56V35H54.56V34ZM54.56 13.94H59.214V11.94H54.56V13.94ZM58.214 12.94V30.854H60.214V12.94H58.214ZM59.214 31.854H64.05V29.854H59.214V31.854ZM63.05 30.854V34H65.05V30.854H63.05ZM64.05 33H54.56V35H64.05V33ZM55.56 34V12.94H53.56V34H55.56ZM65.9673 14.56V13.56H64.9673V14.56H65.9673ZM76.8153 17.152L75.8962 17.5459L75.9005 17.5559L75.905 17.5658L76.8153 17.152ZM76.8153 31.36L75.9022 30.9523L75.8992 30.9592L75.8962 30.9661L76.8153 31.36ZM74.8233 33.352L74.4072 32.4427L74.4013 32.4454L74.8233 33.352ZM65.9673 34H64.9673V35H65.9673V34ZM72.3033 30.76L72.8248 31.6133L72.8311 31.6094L72.8373 31.6055L72.3033 30.76ZM72.8793 29.968L73.8522 30.1996L73.8545 30.1896L72.8793 29.968ZM72.8553 18.544L71.8825 18.7756L71.8892 18.8037L71.8975 18.8313L72.8553 18.544ZM72.2793 17.8L71.7937 18.6742L71.8036 18.6796L71.8136 18.6849L72.2793 17.8ZM70.2633 17.56V16.56H69.2633V17.56H70.2633ZM70.2633 31.024H69.2633V32.024H70.2633V31.024ZM65.9673 15.56H70.8873V13.56H65.9673V15.56ZM70.8873 15.56C72.5052 15.56 73.6584 15.7634 74.4201 16.0991L75.2266 14.2689C74.1003 13.7726 72.6295 13.56 70.8873 13.56V15.56ZM74.4201 16.0991C75.1472 16.4195 75.6182 16.8972 75.8962 17.5459L77.7345 16.7581C77.2445 15.6148 76.3875 14.7805 75.2266 14.2689L74.4201 16.0991ZM75.905 17.5658C76.2227 18.2648 76.4153 19.2894 76.4153 20.704H78.4153C78.4153 19.1426 78.208 17.7992 77.7257 16.7382L75.905 17.5658ZM76.4153 20.704V27.76H78.4153V20.704H76.4153ZM76.4153 27.76C76.4153 29.191 76.2227 30.2345 75.9022 30.9523L77.7285 31.7677C78.208 30.6935 78.4153 29.337 78.4153 27.76H76.4153ZM75.8962 30.9661C75.6168 31.6181 75.1414 32.1067 74.4072 32.4427L75.2395 34.2613C76.3933 33.7333 77.2459 32.8939 77.7345 31.7539L75.8962 30.9661ZM74.4013 32.4454C73.6629 32.7891 72.534 33 70.9353 33V35C72.6647 35 74.1277 34.7789 75.2454 34.2586L74.4013 32.4454ZM70.9353 33H65.9673V35H70.9353V33ZM66.9673 34V14.56H64.9673V34H66.9673ZM70.9353 32.024C71.6104 32.024 72.2957 31.9366 72.8248 31.6133L71.7819 29.9067C71.735 29.9354 71.5083 30.024 70.9353 30.024V32.024ZM72.8373 31.6055C73.3521 31.2804 73.709 30.801 73.8521 30.1996L71.9065 29.7364C71.8897 29.807 71.8626 29.8556 71.7694 29.9145L72.8373 31.6055ZM73.8545 30.1896C73.9595 29.7274 73.9993 29.1264 73.9993 28.432H71.9993C71.9993 29.0816 71.9592 29.5046 71.9042 29.7464L73.8545 30.1896ZM73.9993 28.432V19.96H71.9993V28.432H73.9993ZM73.9993 19.96C73.9993 19.3075 73.9517 18.7185 73.8132 18.2567L71.8975 18.8313C71.951 19.0095 71.9993 19.3645 71.9993 19.96H73.9993ZM73.8281 18.3124C73.6817 17.6974 73.306 17.2103 72.7451 16.9151L71.8136 18.6849C71.8512 18.7047 71.8603 18.7177 71.8606 18.7182C71.8611 18.7188 71.8721 18.7318 71.8825 18.7756L73.8281 18.3124ZM72.765 16.9258C72.2472 16.6382 71.5784 16.56 70.9113 16.56V18.56C71.4923 18.56 71.7355 18.6418 71.7937 18.6742L72.765 16.9258ZM70.9113 16.56H70.2633V18.56H70.9113V16.56ZM69.2633 17.56V31.024H71.2633V17.56H69.2633ZM70.2633 32.024H70.9353V30.024H70.2633V32.024Z" fill="#131313"/>
</g>
<defs>
<filter id="filter0_d_395_10149" x="75.0713" y="17.23" width="84.6348" height="25.9141" filterUnits="userSpaceOnUse" color-interpolation-filters="sRGB">
<feFlood flood-opacity="0" result="BackgroundImageFix"/>
<feColorMatrix in="SourceAlpha" type="matrix" values="0 0 0 0 0 0 0 0 0 0 0 0 0 0 0 0 0 0 127 0" result="hardAlpha"/>
<feOffset dy="4"/>
<feGaussianBlur stdDeviation="3"/>
<feComposite in2="hardAlpha" operator="out"/>
<feColorMatrix type="matrix" values="0 0 0 0 0 0 0 0 0 0 0 0 0 0 0 0 0 0 0.35 0"/>
<feBlend mode="normal" in2="BackgroundImageFix" result="effect1_dropShadow_395_10149"/>
<feBlend mode="normal" in="SourceGraphic" in2="effect1_dropShadow_395_10149" result="shape"/>
</filter>
<filter id="filter1_i_395_10149" x="54.5596" y="12.9399" width="24.8555" height="22.0601" filterUnits="userSpaceOnUse" color-interpolation-filters="sRGB">
<feFlood flood-opacity="0" result="BackgroundImageFix"/>
<feBlend mode="normal" in="SourceGraphic" in2="BackgroundImageFix" result="shape"/>
<feColorMatrix in="SourceAlpha" type="matrix" values="0 0 0 0 0 0 0 0 0 0 0 0 0 0 0 0 0 0 127 0" result="hardAlpha"/>
<feOffset dx="2" dy="1"/>
<feGaussianBlur stdDeviation="1.5"/>
<feComposite in2="hardAlpha" operator="arithmetic" k2="-1" k3="1"/>
<feColorMatrix type="matrix" values="0 0 0 0 0.301961 0 0 0 0 0.301961 0 0 0 0 0.443137 0 0 0 0.85 0"/>
<feBlend mode="normal" in2="shape" result="effect1_innerShadow_395_10149"/>
</filter>
<clipPath id="clip0_395_10149">
<rect width="155" height="48" fill="white"/>
</clipPath>
<clipPath id="clip1_395_10149">
<rect width="52.6253" height="48" fill="white"/>
</clipPath>
</defs>
</svg>
