<svg width="139" height="157" viewBox="0 0 139 157" fill="none" xmlns="http://www.w3.org/2000/svg">
<g clip-path="url(#clip0_570_11824)">
<path d="M-26.2022 44.8853L122.783 -20.8206L155.594 -10.7403L-29.1484 70.1492L-26.2022 44.8853Z" fill="#374053" fill-opacity="0.3"/>
<path d="M-19.0335 104.631L155.882 29.8679L155.882 58.0799L-19.033 131.431L-19.0335 104.631Z" fill="#374053" fill-opacity="0.3"/>
<path d="M-11.7366 165.561L157.293 89.1149L155.478 116.706L20.0048 176.719L-11.7366 165.561Z" fill="#374053" fill-opacity="0.3"/>
<g clip-path="url(#clip1_570_11824)">
<path opacity="0.954" fill-rule="evenodd" clip-rule="evenodd" d="M40.7189 47.1573C43.3335 47.0948 45.9391 47.1623 48.5353 47.3596C50.1841 48.2157 50.7008 49.5422 50.0851 51.3393C49.6589 52.1277 49.0076 52.6448 48.131 52.8907C45.5169 53.0205 42.9113 52.9755 40.3146 52.7558C38.8007 52.0379 38.2392 50.8463 38.6301 49.1808C38.9674 48.1257 39.6637 47.4512 40.7189 47.1573Z" fill="#131313"/>
<path fill-rule="evenodd" clip-rule="evenodd" d="M41.1233 49.1813C43.3249 49.1588 45.5261 49.1813 47.7268 49.2487C48.4455 49.7883 48.4455 50.328 47.7268 50.8676C45.5257 50.9575 43.3244 50.9575 41.1233 50.8676C40.4133 50.306 40.4133 49.7439 41.1233 49.1813Z" fill="#E5C465"/>
<path opacity="0.974" fill-rule="evenodd" clip-rule="evenodd" d="M86 74.0035C86 75.7573 86 77.511 86 79.2647C84.6503 88.3316 79.8436 94.8294 71.5801 98.7583C62.8734 102.137 54.7425 101.102 47.1875 95.6555C46.4238 94.981 45.6602 94.3065 44.8965 93.632C38.3378 93.5871 31.7793 93.542 25.2207 93.4971C23.1657 92.8254 22.3347 91.4089 22.7275 89.2476C23.1566 88.0548 23.9877 87.3128 25.2207 87.0217C28.0508 86.9768 30.8809 86.9317 33.7109 86.8868C34.4395 86.6197 34.6865 86.1025 34.4521 85.3354C34.3261 84.9844 34.0791 84.782 33.7109 84.7283C30.0208 84.7238 26.3372 84.6338 22.6602 84.4585C20.6786 83.3873 20.117 81.7908 20.9756 79.6695C21.5173 78.8696 22.2585 78.3525 23.1992 78.1181C26.8462 78.1146 30.4849 78.0246 34.1152 77.8483C34.6543 77.2187 34.6543 76.5892 34.1152 75.9596C32.8674 75.7908 31.6097 75.7009 30.3418 75.6898C28.6321 75.2831 27.7786 74.2038 27.7812 72.4521C27.7786 70.7004 28.6321 69.6212 30.3418 69.2144C31.6097 69.2034 32.8674 69.1134 34.1152 68.9446C34.6543 68.315 34.6543 67.6856 34.1152 67.056C33.9805 67.011 33.8457 66.966 33.7109 66.9211C28.9941 66.8761 24.2773 66.8311 19.5605 66.7862C18.3023 66.4923 17.4488 65.7504 17 64.5602C17 63.8857 17 63.2112 17 62.5367C17.4488 61.3466 18.3023 60.6046 19.5605 60.3108C27.8711 60.2659 36.1816 60.2208 44.4922 60.1759C50.4091 54.0943 57.5967 51.6661 66.0547 52.8911C74.2775 54.5187 80.2297 59.083 83.9111 66.5838C84.9554 68.9755 85.6518 71.4488 86 74.0035Z" fill="#131313"/>
<path fill-rule="evenodd" clip-rule="evenodd" d="M79.2613 74.8128C78.5875 74.8128 77.9137 74.8128 77.2398 74.8128C77.2631 74.3177 77.0386 73.9805 76.566 73.801C74.4533 73.7785 72.3419 73.7111 70.232 73.5987C69.1954 70.9198 67.3087 69.1435 64.5718 68.27C60.6624 67.2512 57.4504 68.3079 54.9361 71.4402C54.4683 72.1116 54.0865 72.8312 53.7906 73.5987C51.5013 73.7335 43.6083 73.7785 41.3156 73.7336C41.1409 66.6963 48.4671 59.7711 54.3297 56.0612C62.2706 53.3764 69.5479 54.6131 76.1617 59.7711C80.0572 63.1843 82.5504 67.4337 83.6412 72.5195C83.7083 72.9217 83.7308 73.3265 83.7086 73.7336C82.45 73.7112 81.1921 73.7336 79.9351 73.801C79.4919 73.9913 79.2672 74.3285 79.2613 74.8128Z" fill="white"/>
<path fill-rule="evenodd" clip-rule="evenodd" d="M54.3301 56.0605C49.2141 60.8048 46.7433 66.6957 46.918 73.7329C44.7168 73.7329 42.5156 73.7329 40.3145 73.7329C41.4505 66.2777 45.3139 60.7243 51.9043 57.0723C52.7004 56.6961 53.509 56.3589 54.3301 56.0605Z" fill="#DFD2F1"/>
<path fill-rule="evenodd" clip-rule="evenodd" d="M19.9648 62.4013C27.5344 62.2217 35.1261 62.2217 42.7402 62.4013C42.7235 62.4832 42.6786 62.5281 42.6055 62.5362C41.8676 62.4028 41.1039 62.3578 40.3145 62.4013C33.5313 62.4013 26.748 62.4013 19.9648 62.4013Z" fill="#736130"/>
<path fill-rule="evenodd" clip-rule="evenodd" d="M19.9647 62.4014C26.7479 62.4014 34.5328 62.4014 41.316 62.4014C38.8462 66.2662 36.9236 71.0481 36.6082 75.6373C36.1523 74.9799 35.0517 73.9978 34.2498 73.8007C33.0818 73.7558 31.9139 73.7107 30.7459 73.6658C29.8171 73.2812 29.5701 72.6292 30.0047 71.7097C30.2176 71.5018 30.4646 71.3444 30.7459 71.2376C31.9139 71.1926 33.0818 71.1476 34.2498 71.1027C36.0796 70.4767 36.8656 69.1951 36.6082 67.2579C36.2713 66.0212 35.4852 65.2343 34.2498 64.8971C29.4881 64.8522 24.7264 64.8071 19.9647 64.7622C19.0359 64.3776 18.7888 63.7256 19.2235 62.8061C19.424 62.5821 19.671 62.4472 19.9647 62.4014Z" fill="#F2CF6B"/>
<path fill-rule="evenodd" clip-rule="evenodd" d="M36.9581 77.7842C37.2889 82.4653 38.6819 87.543 41.3159 91.4058C36.2847 91.4058 30.656 91.4058 25.6248 91.4058C25.0245 91.2436 24.71 90.8389 24.6815 90.1917C24.7689 89.6313 25.0833 89.249 25.6248 89.045C28.4998 89.0001 31.3749 88.955 34.2498 88.9101C36.0796 88.2841 36.8656 87.0025 36.6082 85.0653C36.2713 83.8287 35.4852 83.0418 34.2498 82.7045C30.7011 82.6596 27.1522 82.6145 23.6034 82.5696C22.6746 82.185 22.4275 81.533 22.8621 80.6135C23.075 80.4056 23.3221 80.2482 23.6034 80.1413C27.1522 80.0964 30.7011 80.0514 34.2498 80.0064C35.122 79.7967 36.4826 78.5187 36.9581 77.7842Z" fill="#F0CD6A"/>
<path fill-rule="evenodd" clip-rule="evenodd" d="M40.3145 62.4018C41.1039 62.3583 41.8676 62.4032 42.6055 62.5367C37.6825 69.7721 36.7616 77.5065 39.8428 85.7401C40.1859 86.1025 40.6127 86.2374 41.123 86.1448C41.3561 86.7462 41.6256 87.3308 41.9316 87.8986C41.5536 88.269 41.4412 88.7187 41.5947 89.2476C42.0678 89.926 42.5394 90.6006 43.0098 91.2712C42.2719 91.4046 41.5082 91.4495 40.7188 91.4061C38.0848 87.5432 36.6023 83.2714 36.2715 78.5902C36.8521 77.3908 36.8072 76.2216 36.1367 75.0827C36.4521 70.4936 37.8446 66.2666 40.3145 62.4018Z" fill="#F5BA37"/>
<path opacity="0.948" fill-rule="evenodd" clip-rule="evenodd" d="M17 73.4635C17 72.789 17 72.1144 17 71.4399C17.3673 70.4648 18.0411 69.7679 19.0215 69.3489C20.316 69.1389 21.6187 69.0938 22.9297 69.214C25.0445 69.8521 25.8755 71.2686 25.4229 73.4635C25.0165 74.6795 24.1854 75.4215 22.9297 75.6894C21.6187 75.8096 20.316 75.7645 19.0215 75.5545C18.0411 75.1355 17.3673 74.4386 17 73.4635Z" fill="#131313"/>
<path fill-rule="evenodd" clip-rule="evenodd" d="M66.998 81.1532C66.4059 81.1068 65.8218 81.0169 65.2461 80.8834C67.243 78.9606 67.7147 76.7121 66.6611 74.1382C65.0501 71.6891 62.8265 70.8797 59.9902 71.7099C60.0889 71.1437 60.2687 70.6041 60.5293 70.0911C64.7802 69.5338 67.498 71.3324 68.6826 75.4872C68.9546 77.638 68.3931 79.5266 66.998 81.1532Z" fill="#4D4D71"/>
<path fill-rule="evenodd" clip-rule="evenodd" d="M60.5296 70.0908C60.2689 70.6039 60.0892 71.1435 59.9905 71.7097C56.9877 73.4082 56.1117 75.8814 57.3626 79.1294C59.4521 82.0622 62.08 82.6467 65.2464 80.8831C65.8221 81.0167 66.4062 81.1065 66.9983 81.1529C65.2256 82.9694 63.0694 83.6664 60.5296 83.2439C56.8043 82.0178 55.0748 79.4321 55.3411 75.487C55.9591 72.5977 57.6886 70.7991 60.5296 70.0908Z" fill="#3C416A"/>
<path fill-rule="evenodd" clip-rule="evenodd" d="M19.965 71.1705C20.8197 71.1481 21.6732 71.1705 22.5255 71.238C23.5191 71.6911 23.7213 72.388 23.132 73.3289C22.5553 73.6659 21.9264 73.8008 21.2453 73.7337C20.3336 73.9225 19.6148 73.6527 19.089 72.9242C18.8836 72.0764 19.1756 71.4918 19.965 71.1705Z" fill="#EBC968"/>
<path fill-rule="evenodd" clip-rule="evenodd" d="M65.2461 80.8832C62.0798 82.6468 59.4519 82.0623 57.3623 79.1295C56.1114 75.8816 56.9874 73.4084 59.9902 71.7098C62.8265 70.8796 65.0502 71.689 66.6611 74.1381C67.7147 76.712 67.2431 78.9605 65.2461 80.8832Z" fill="#131313"/>
<path fill-rule="evenodd" clip-rule="evenodd" d="M64.0333 79.1297C62.0731 78.8997 60.8377 77.8205 60.3272 75.892C60.2294 75.2105 60.2519 74.536 60.3946 73.8685C61.4408 73.3538 62.5189 73.3313 63.629 73.801C65.2799 74.982 65.6617 76.4884 64.7745 78.3203C64.5951 78.657 64.3481 78.9268 64.0333 79.1297Z" fill="#F2CF6B"/>
<path fill-rule="evenodd" clip-rule="evenodd" d="M60.3949 73.8682C60.2521 74.5357 60.2296 75.2102 60.3275 75.8917C60.838 77.8201 62.0734 78.8994 64.0335 79.1294C63.1551 79.7583 62.1668 79.9607 61.0687 79.7364C59.3395 79.0413 58.5983 77.7597 58.8451 75.8917C59.105 75.0076 59.6216 74.333 60.3949 73.8682Z" fill="#F5BA37"/>
<path fill-rule="evenodd" clip-rule="evenodd" d="M77.2402 74.8125C77.9141 74.8125 78.5879 74.8125 79.2617 74.8125C79.3075 75.2408 79.5322 75.533 79.9355 75.6894C81.2824 75.7568 82.6301 75.7792 83.9785 75.7568C83.9785 76.3864 83.9785 77.0159 83.9785 77.6455C79.5761 77.6455 75.1739 77.6455 70.7715 77.6455C70.7715 77.0159 70.7715 76.3864 70.7715 75.7568C72.7036 75.7794 74.6354 75.7568 76.5664 75.6894C76.9753 75.5287 77.1999 75.2364 77.2402 74.8125Z" fill="#AA9CD5"/>
<path fill-rule="evenodd" clip-rule="evenodd" d="M40.0449 75.7568C44.4473 75.7568 48.8496 75.7568 53.252 75.7568C53.252 76.3864 53.252 77.0159 53.252 77.6455C48.8496 77.6455 44.4473 77.6455 40.0449 77.6455C40.0449 77.0159 40.0449 76.3864 40.0449 75.7568Z" fill="#A79AD3"/>
<path fill-rule="evenodd" clip-rule="evenodd" d="M41.3164 79.6696C43.3384 79.6471 51.77 79.6696 53.7909 79.737C55.9927 84.3015 59.5865 86.0552 64.5722 84.9983C67.2824 84.1288 69.1692 82.3751 70.2323 79.737C74.7243 79.6696 79.2165 79.6471 83.7089 79.6696C82.5645 87.0163 78.7461 92.4574 72.2538 95.9929C70.9529 96.1159 67.6521 97.1923 66.3476 97.1142C56.0256 95.9756 44.7405 89.4582 41.3164 79.6696Z" fill="white"/>
<path fill-rule="evenodd" clip-rule="evenodd" d="M47.7266 79.6689C51.1507 89.4576 58.0237 94.9212 68.3457 96.0597C69.6502 96.1379 70.953 96.1153 72.2539 95.9923C68.1786 98.1866 63.8211 99.0186 59.1816 98.488C52.2183 97.4012 46.8726 93.8937 43.1445 87.9655C42.7464 87.7336 42.3421 87.7112 41.9316 87.8981C41.6256 87.3303 41.3561 86.7457 41.123 86.1443C41.4445 85.8608 41.6241 85.501 41.6621 85.0651C40.9908 83.3248 40.5417 81.5262 40.3145 79.6689C42.7851 79.6689 45.2559 79.6689 47.7266 79.6689Z" fill="#DFD2F1"/>
<path fill-rule="evenodd" clip-rule="evenodd" d="M43.0098 91.2705C43.0829 91.2786 43.1278 91.3235 43.1445 91.4054C37.2825 91.585 31.4427 91.585 25.625 91.4054C30.6562 91.4054 35.6875 91.4054 40.7188 91.4054C41.5082 91.4488 42.2719 91.4039 43.0098 91.2705Z" fill="#836E37"/>
<path opacity="0.957" fill-rule="evenodd" clip-rule="evenodd" d="M22.7948 101.523C27.0626 101.501 31.3302 101.523 35.5975 101.591C37.1723 102.202 37.7787 103.349 37.4169 105.031C37.1119 105.921 36.5055 106.483 35.5975 106.717C31.3299 106.807 27.0624 106.807 22.7948 106.717C21.22 106.105 20.6136 104.959 20.9755 103.277C21.3046 102.385 21.9111 101.8 22.7948 101.523Z" fill="#131313"/>
<path fill-rule="evenodd" clip-rule="evenodd" d="M23.3339 103.548C27.2423 103.525 31.1505 103.548 35.0585 103.615C35.5822 103.994 35.5822 104.353 35.0585 104.694C31.1503 104.784 27.2421 104.784 23.3339 104.694C22.821 104.331 22.821 103.949 23.3339 103.548Z" fill="#DDBD62"/>
<path opacity="0.957" fill-rule="evenodd" clip-rule="evenodd" d="M51.3651 104.761C55.6328 104.739 59.9005 104.761 64.1678 104.829C65.7425 105.44 66.349 106.587 65.9871 108.269C65.6822 109.159 65.0757 109.721 64.1678 109.955C59.9002 110.045 55.6327 110.045 51.3651 109.955C49.7904 109.344 49.1839 108.197 49.5458 106.515C49.8748 105.623 50.4813 105.039 51.3651 104.761Z" fill="#131313"/>
<path fill-rule="evenodd" clip-rule="evenodd" d="M51.9041 106.785C55.8126 106.762 59.7208 106.785 63.6287 106.852C64.1524 107.231 64.1524 107.591 63.6287 107.931C59.7205 108.021 55.8123 108.021 51.9041 107.931C51.3913 107.569 51.3913 107.186 51.9041 106.785Z" fill="#DDBD62"/>
</g>
<g filter="url(#filter0_i_570_11824)">
<path d="M88 93V63H94.7198V88.5185H101.702V93H88ZM104.471 93V65.3077H111.574C114.023 65.3077 115.929 65.6154 117.292 66.2308C118.655 66.8234 119.614 67.7692 120.168 69.0684C120.723 70.3447 121 72.0085 121 74.0598V84.1111C121 86.1852 120.723 87.8832 120.168 89.2051C119.614 90.5043 118.655 91.4615 117.292 92.0769C115.952 92.6923 114.069 93 111.644 93H104.471ZM110.673 88.7607H111.644C112.591 88.7607 113.272 88.6239 113.688 88.3504C114.104 88.0769 114.358 87.6667 114.451 87.1197C114.566 86.5726 114.624 85.8889 114.624 85.0684V73C114.624 72.1795 114.555 71.5185 114.416 71.0171C114.3 70.5157 114.035 70.151 113.619 69.9231C113.203 69.6952 112.533 69.5812 111.609 69.5812H110.673V88.7607Z" fill="white"/>
</g>
<path d="M87.35 93V93.65H88H101.702H102.352V93V88.5185V87.8685H101.702H95.3698V63V62.35H94.7198H88H87.35V63V93ZM103.821 93V93.65H104.471H111.644C114.109 93.65 116.099 93.3397 117.561 92.6686C119.062 91.9904 120.144 90.9181 120.766 89.4603L120.768 89.4565C121.367 88.0278 121.65 86.2361 121.65 84.1111V74.0598C121.65 71.9592 121.367 70.1987 120.766 68.8117C120.143 67.3534 119.059 66.2914 117.555 65.6365C116.072 64.9678 114.062 64.6577 111.574 64.6577H104.471H103.821V65.3077V93ZM113.815 86.9854L113.812 86.9983L113.81 87.0114C113.744 87.4029 113.578 87.645 113.331 87.8074C113.081 87.9722 112.561 88.1107 111.644 88.1107H111.323V70.2312H111.609C112.509 70.2312 113.041 70.3473 113.307 70.4931C113.545 70.6237 113.705 70.825 113.783 71.163L113.786 71.1767L113.789 71.1903C113.906 71.6126 113.974 72.2085 113.974 73V85.0684C113.974 85.8626 113.918 86.4978 113.815 86.9854Z" stroke="black" stroke-width="1.3"/>
<path d="M79.9102 101.014V106H78.8262V99.6602H79.8516L79.9102 101.014ZM79.6523 102.59L79.2012 102.572C79.2051 102.139 79.2695 101.738 79.3945 101.371C79.5195 101 79.6953 100.678 79.9219 100.404C80.1484 100.131 80.418 99.9199 80.7305 99.7715C81.0469 99.6191 81.3965 99.543 81.7793 99.543C82.0918 99.543 82.3731 99.5859 82.6231 99.6719C82.8731 99.7539 83.0859 99.8867 83.2617 100.07C83.4414 100.254 83.5781 100.492 83.6719 100.785C83.7656 101.074 83.8125 101.428 83.8125 101.846V106H82.7227V101.834C82.7227 101.502 82.6738 101.236 82.5762 101.037C82.4785 100.834 82.3359 100.687 82.1484 100.598C81.9609 100.504 81.7305 100.457 81.457 100.457C81.1875 100.457 80.9414 100.514 80.7187 100.627C80.5 100.74 80.3105 100.896 80.1504 101.096C79.9941 101.295 79.8711 101.523 79.7812 101.781C79.6953 102.035 79.6523 102.305 79.6523 102.59ZM88.8098 106.117C88.3684 106.117 87.9681 106.043 87.6087 105.895C87.2532 105.742 86.9466 105.529 86.6888 105.256C86.4348 104.982 86.2395 104.658 86.1028 104.283C85.9661 103.908 85.8977 103.498 85.8977 103.053V102.807C85.8977 102.291 85.9739 101.832 86.1263 101.43C86.2786 101.023 86.4856 100.68 86.7473 100.398C87.0091 100.117 87.3059 99.9043 87.638 99.7598C87.97 99.6152 88.3138 99.543 88.6692 99.543C89.1223 99.543 89.513 99.6211 89.8411 99.7773C90.1731 99.9336 90.4446 100.152 90.6555 100.434C90.8665 100.711 91.0227 101.039 91.1243 101.418C91.2259 101.793 91.2766 102.203 91.2766 102.648V103.135H86.5423V102.25H90.1927V102.168C90.177 101.887 90.1184 101.613 90.0169 101.348C89.9192 101.082 89.763 100.863 89.5481 100.691C89.3333 100.52 89.0403 100.434 88.6692 100.434C88.4231 100.434 88.1966 100.486 87.9895 100.592C87.7825 100.693 87.6048 100.846 87.4563 101.049C87.3079 101.252 87.1927 101.5 87.1106 101.793C87.0286 102.086 86.9876 102.424 86.9876 102.807V103.053C86.9876 103.354 87.0286 103.637 87.1106 103.902C87.1966 104.164 87.3196 104.395 87.4798 104.594C87.6438 104.793 87.8411 104.949 88.0716 105.062C88.3059 105.176 88.5716 105.232 88.8684 105.232C89.2513 105.232 89.5755 105.154 89.8411 104.998C90.1067 104.842 90.3391 104.633 90.5384 104.371L91.1946 104.893C91.0579 105.1 90.8841 105.297 90.6731 105.484C90.4622 105.672 90.2024 105.824 89.8938 105.941C89.5891 106.059 89.2278 106.117 88.8098 106.117ZM94.8677 104.875L96.4966 99.6602H97.2115L97.0709 100.697L95.4127 106H94.7154L94.8677 104.875ZM93.772 99.6602L95.1607 104.934L95.2603 106H94.5279L92.688 99.6602H93.772ZM98.7701 104.893L100.094 99.6602H101.172L99.3326 106H98.606L98.7701 104.893ZM97.3697 99.6602L98.9634 104.787L99.1451 106H98.4537L96.7486 100.686L96.608 99.6602H97.3697ZM106.697 104.318C106.697 104.162 106.662 104.018 106.592 103.885C106.525 103.748 106.387 103.625 106.176 103.516C105.969 103.402 105.656 103.305 105.238 103.223C104.887 103.148 104.568 103.061 104.283 102.959C104.002 102.857 103.762 102.734 103.562 102.59C103.367 102.445 103.217 102.275 103.111 102.08C103.006 101.885 102.953 101.656 102.953 101.395C102.953 101.145 103.008 100.908 103.117 100.686C103.23 100.463 103.389 100.266 103.592 100.094C103.799 99.9219 104.047 99.7871 104.336 99.6895C104.625 99.5918 104.947 99.543 105.303 99.543C105.81 99.543 106.244 99.6328 106.603 99.8125C106.963 99.9922 107.238 100.232 107.43 100.533C107.621 100.83 107.717 101.16 107.717 101.523H106.633C106.633 101.348 106.58 101.178 106.475 101.014C106.373 100.846 106.223 100.707 106.023 100.598C105.828 100.488 105.588 100.434 105.303 100.434C105.002 100.434 104.758 100.48 104.57 100.574C104.387 100.664 104.252 100.779 104.166 100.92C104.084 101.061 104.043 101.209 104.043 101.365C104.043 101.482 104.062 101.588 104.101 101.682C104.144 101.771 104.219 101.855 104.324 101.934C104.43 102.008 104.578 102.078 104.769 102.145C104.961 102.211 105.205 102.277 105.502 102.344C106.021 102.461 106.449 102.602 106.785 102.766C107.121 102.93 107.371 103.131 107.535 103.369C107.699 103.607 107.781 103.896 107.781 104.236C107.781 104.514 107.723 104.768 107.605 104.998C107.492 105.229 107.326 105.428 107.107 105.596C106.892 105.76 106.635 105.889 106.334 105.982C106.037 106.072 105.703 106.117 105.332 106.117C104.773 106.117 104.301 106.018 103.914 105.818C103.527 105.619 103.234 105.361 103.035 105.045C102.836 104.729 102.736 104.395 102.736 104.043H103.826C103.842 104.34 103.928 104.576 104.084 104.752C104.24 104.924 104.432 105.047 104.658 105.121C104.885 105.191 105.109 105.227 105.332 105.227C105.629 105.227 105.877 105.187 106.076 105.109C106.279 105.031 106.433 104.924 106.539 104.787C106.644 104.65 106.697 104.494 106.697 104.318Z" fill="#F0CD6A"/>
</g>
<defs>
<filter id="filter0_i_570_11824" x="86.7002" y="61.7002" width="37.5996" height="33.5996" filterUnits="userSpaceOnUse" color-interpolation-filters="sRGB">
<feFlood flood-opacity="0" result="BackgroundImageFix"/>
<feBlend mode="normal" in="SourceGraphic" in2="BackgroundImageFix" result="shape"/>
<feColorMatrix in="SourceAlpha" type="matrix" values="0 0 0 0 0 0 0 0 0 0 0 0 0 0 0 0 0 0 127 0" result="hardAlpha"/>
<feOffset dx="2" dy="1"/>
<feGaussianBlur stdDeviation="1.5"/>
<feComposite in2="hardAlpha" operator="arithmetic" k2="-1" k3="1"/>
<feColorMatrix type="matrix" values="0 0 0 0 0.301961 0 0 0 0 0.301961 0 0 0 0 0.443137 0 0 0 0.5 0"/>
<feBlend mode="normal" in2="shape" result="effect1_innerShadow_570_11824"/>
</filter>
<clipPath id="clip0_570_11824">
<rect width="139" height="157" fill="white"/>
</clipPath>
<clipPath id="clip1_570_11824">
<rect width="69" height="63" fill="white" transform="translate(17 47)"/>
</clipPath>
</defs>
</svg>
