<svg width="28" height="28" viewBox="0 0 28 28" fill="none" xmlns="http://www.w3.org/2000/svg">
  <g clip-path="url(#clip0_837_2)">
    <path d="M27.8222 14.7866L14.4309 1.39533C14.1935 1.15794 13.8076 1.15794 13.5702 1.39533L0.178956 14.7866C0.0645407 14.9011 0 15.0556 0 15.2176V26.1741C0 26.42 0.148541 26.6428 0.376174 26.7366C0.603807 26.8315 0.864366 26.7792 1.03967 26.6051L14 13.6435L26.9604 26.6039C27.0773 26.7207 27.2331 26.7828 27.3913 26.7828C27.4692 26.7828 27.5496 26.7682 27.6239 26.7366C27.8515 26.6428 28.0001 26.42 28.0001 26.1741V15.2176C28 15.0556 27.9355 14.9011 27.8222 14.7866Z" fill="#333333"/>
  </g>
  <defs>
    <clipPath id="clip0_837_2">
      <rect width="28" height="28" fill="white"/>
    </clipPath>
  </defs>
</svg>
