<svg width="34" height="34" viewBox="0 0 34 34" fill="none" xmlns="http://www.w3.org/2000/svg">
<path d="M28.2735 7.37872C28.2648 7.3619 28.2504 7.34871 28.2329 7.34153C26.2076 6.41231 24.0704 5.74969 21.8746 5.37028C21.8547 5.36657 21.8341 5.36924 21.8157 5.37792C21.7974 5.3866 21.7822 5.40084 21.7724 5.41862C21.4814 5.94684 21.2172 6.4894 20.9809 7.04425C18.614 6.68495 16.2064 6.68495 13.8395 7.04425C13.6016 6.48799 13.3332 5.94529 13.0355 5.41862C13.0252 5.40123 13.01 5.38732 12.9918 5.37869C12.9736 5.37007 12.9532 5.36714 12.9332 5.37028C10.7373 5.7489 8.59985 6.41156 6.57482 7.34159C6.55749 7.34894 6.54286 7.36148 6.53296 7.3775C2.48329 13.4251 1.37394 19.3241 1.91815 25.15C1.91968 25.1643 1.92407 25.1781 1.93105 25.1906C1.93803 25.2032 1.94746 25.2142 1.95879 25.223C4.31687 26.969 6.95442 28.3017 9.75887 29.1643C9.77862 29.1703 9.79971 29.17 9.8193 29.1636C9.8389 29.1571 9.85605 29.1449 9.86846 29.1284C10.4708 28.3088 11.0045 27.441 11.4642 26.5337C11.4705 26.5212 11.4741 26.5076 11.4748 26.4936C11.4754 26.4797 11.4731 26.4658 11.468 26.4528C11.4629 26.4398 11.4551 26.428 11.4451 26.4183C11.4351 26.4085 11.4232 26.401 11.41 26.3962C10.5684 26.0742 9.75362 25.686 8.97331 25.2353C8.95913 25.2269 8.94723 25.2152 8.93865 25.2012C8.93006 25.1872 8.92506 25.1713 8.92409 25.1548C8.92312 25.1384 8.92621 25.122 8.93308 25.1071C8.93995 25.0922 8.95039 25.0791 8.96348 25.0692C9.12721 24.9465 9.29105 24.8189 9.4474 24.69C9.46129 24.6786 9.4781 24.6713 9.49593 24.6689C9.51376 24.6665 9.53191 24.6691 9.54833 24.6764C14.6605 27.0095 20.1951 27.0095 25.2468 24.6764C25.2632 24.6686 25.2816 24.6656 25.2997 24.6678C25.3178 24.67 25.3349 24.6773 25.349 24.6888C25.5054 24.8177 25.6692 24.9465 25.8341 25.0692C25.8473 25.079 25.8578 25.092 25.8648 25.1068C25.8718 25.1217 25.875 25.1381 25.8741 25.1545C25.8733 25.1709 25.8684 25.1869 25.8599 25.201C25.8514 25.215 25.8396 25.2268 25.8255 25.2353C25.047 25.6898 24.2314 26.0777 23.3876 26.395C23.3745 26.4 23.3626 26.4077 23.3527 26.4176C23.3428 26.4275 23.335 26.4393 23.33 26.4524C23.325 26.4655 23.3228 26.4795 23.3236 26.4935C23.3243 26.5075 23.3281 26.5212 23.3345 26.5337C23.8018 27.4359 24.3348 28.3027 24.929 29.127C24.941 29.1439 24.9581 29.1566 24.9778 29.1633C24.9974 29.1699 25.0187 29.1702 25.0386 29.1642C27.8481 28.3045 30.4902 26.9717 32.8512 25.223C32.8627 25.2146 32.8723 25.2039 32.8793 25.1915C32.8863 25.1791 32.8906 25.1654 32.8919 25.1512C33.5434 18.4159 31.8011 12.5653 28.2735 7.37872ZM12.2276 21.6026C10.6885 21.6026 9.4203 20.1902 9.4203 18.4555C9.4203 16.7209 10.6639 15.3084 12.2276 15.3084C13.8036 15.3084 15.0595 16.7332 15.0349 18.4554C15.0349 20.1902 13.7913 21.6026 12.2276 21.6026ZM22.6072 21.6026C21.0681 21.6026 19.7999 20.1902 19.7999 18.4555C19.7999 16.7209 21.0435 15.3084 22.6072 15.3084C24.1833 15.3084 25.4391 16.7332 25.4145 18.4554C25.4145 20.1902 24.1833 21.6026 22.6072 21.6026Z" fill="white"/>
</svg>
