<svg width="34" height="34" viewBox="0 0 34 34" fill="none" xmlns="http://www.w3.org/2000/svg">
<path d="M29.9143 4.80933C29.4565 4.42106 28.7373 4.3655 27.9937 4.66403H27.9925C27.2105 4.97783 5.8555 14.1376 4.98617 14.5119C4.82805 14.5668 3.44712 15.0821 3.58936 16.2298C3.71635 17.2646 4.82622 17.6931 4.96175 17.7426L10.3908 19.6015C10.751 20.8005 12.0788 25.2241 12.3725 26.1692C12.5556 26.7583 12.8542 27.5324 13.3774 27.6917C13.8364 27.8688 14.2931 27.707 14.5886 27.475L17.9078 24.3963L23.2661 28.5751L23.3937 28.6514C23.7575 28.8126 24.1061 28.8932 24.4388 28.8932C24.6959 28.8932 24.9425 28.845 25.1781 28.7485C25.9809 28.4188 26.3021 27.6539 26.3356 27.5672L30.338 6.76351C30.5822 5.65242 30.2428 5.0871 29.9143 4.80933ZM15.1789 20.3451L13.3474 25.229L11.516 19.1241L25.5573 8.74577L15.1789 20.3451Z" fill="white"/>
</svg>
