<svg width="12" height="12" viewBox="0 0 12 12" fill="none" xmlns="http://www.w3.org/2000/svg">
<path d="M9.37004 0.8H10.3635V0H9.37004H2.08433H1.09082V0.8H2.08433V2.9656L4.59657 6L2.08433 9.0344V11.2H1.09082V12H2.08433H2.94073H8.51364H9.37004H10.3635V11.2H9.37004V9.0344L6.85779 6L9.37004 2.9656V0.8ZM4.53961 11.2L5.72718 9.7656L6.91476 11.2H4.53961ZM8.7077 2.6344L5.92125 6L8.7077 9.3656V11.2H7.8513L5.72718 8.6344L3.60307 11.2H2.74666V9.3656L5.53312 6L2.74666 2.6344V0.8H8.7077V2.6344Z" fill="#EBA900"/>
</svg>
