<svg width="12" height="12" viewBox="0 0 12 12" fill="none" xmlns="http://www.w3.org/2000/svg">
<path d="M5.99981 6.4C5.36691 6.4 4.74822 6.21232 4.22198 5.8607C3.69574 5.50908 3.28559 5.00931 3.04339 4.42459C2.80119 3.83986 2.73782 3.19645 2.86129 2.57571C2.98477 1.95497 3.28954 1.38479 3.73706 0.93726C4.18459 0.489732 4.75478 0.184961 5.37552 0.0614885C5.99626 -0.0619842 6.63967 0.00138649 7.22439 0.243587C7.80912 0.485787 8.30889 0.895939 8.66051 1.42218C9.01213 1.94841 9.19981 2.5671 9.19981 3.2C9.19981 4.04869 8.86266 4.86263 8.26255 5.46274C7.66243 6.06286 6.8485 6.4 5.99981 6.4ZM5.99981 0.800001C5.52513 0.800001 5.06112 0.940759 4.66644 1.20447C4.27176 1.46819 3.96415 1.84302 3.7825 2.28156C3.60084 2.7201 3.55332 3.20266 3.64592 3.66822C3.73853 4.13377 3.9671 4.56141 4.30275 4.89706C4.6384 5.2327 5.06603 5.46128 5.53159 5.55389C5.99714 5.64649 6.4797 5.59896 6.91825 5.41731C7.35679 5.23566 7.73162 4.92805 7.99533 4.53337C8.25905 4.13869 8.39981 3.67468 8.39981 3.2C8.39981 2.56348 8.14695 1.95303 7.69686 1.50295C7.24678 1.05286 6.63633 0.800001 5.99981 0.800001Z" fill="#EBA900"/>
<path d="M8.8002 11.9998H3.2002C2.66976 11.9998 2.16105 11.7891 1.78598 11.414C1.41091 11.0389 1.2002 10.5302 1.2002 9.9998V8.3998C1.20021 8.33038 1.21828 8.26216 1.25265 8.20185C1.28701 8.14154 1.33648 8.0912 1.3962 8.0558L3.3962 6.8558C3.48643 6.81502 3.58859 6.80916 3.6829 6.83935C3.77721 6.86955 3.85696 6.93365 3.90673 7.01925C3.9565 7.10486 3.97275 7.20589 3.95233 7.30278C3.93191 7.39968 3.87628 7.48556 3.7962 7.5438L2.0002 8.6278V9.9998C2.0002 10.3181 2.12662 10.6233 2.35167 10.8483C2.57671 11.0734 2.88194 11.1998 3.2002 11.1998H8.8002C9.11846 11.1998 9.42368 11.0734 9.64872 10.8483C9.87377 10.6233 10.0002 10.3181 10.0002 9.9998V8.6278L8.1962 7.5438C8.14519 7.52075 8.0996 7.48725 8.06235 7.44547C8.02511 7.4037 7.99704 7.35457 7.97998 7.30126C7.96291 7.24796 7.95722 7.19167 7.96328 7.13603C7.96933 7.08039 7.987 7.02663 8.01513 6.97825C8.04326 6.92986 8.08123 6.88792 8.12659 6.85513C8.17195 6.82234 8.22368 6.79943 8.27845 6.78789C8.33322 6.77635 8.3898 6.77643 8.44453 6.78813C8.49926 6.79983 8.55093 6.82288 8.5962 6.8558L10.5962 8.0558C10.6574 8.09019 10.7085 8.14009 10.7443 8.20047C10.7801 8.26086 10.7994 8.3296 10.8002 8.3998V9.9998C10.8002 10.5302 10.5895 11.0389 10.2144 11.414C9.83934 11.7891 9.33063 11.9998 8.8002 11.9998V11.9998Z" fill="#EBA900"/>
</svg>
