<svg width="260" height="260" viewBox="0 0 260 260" fill="none" xmlns="http://www.w3.org/2000/svg">
<circle cx="118.199" cy="127.251" r="116.868" fill="#131313"/>
<path fill-rule="evenodd" clip-rule="evenodd" d="M204.188 117.45C200.818 117.45 197.448 117.45 194.077 117.45C194.194 114.977 193.071 113.291 190.707 112.395C180.14 112.282 169.579 111.945 159.026 111.384C153.841 97.9982 144.404 89.1228 130.715 84.7583C111.162 79.6677 95.096 84.9477 82.52 100.599C80.1803 103.954 78.2707 107.549 76.7904 111.384C65.3401 112.057 24.8246 112.619 13.3567 112.395C12.4832 77.2323 50.0847 42.2923 79.4867 23.7555C119.205 10.3407 155.605 16.5196 188.685 42.2923C208.169 59.3468 220.64 80.5797 226.095 105.991C226.431 108.001 226.544 110.023 226.432 112.058C220.137 111.946 213.846 112.058 207.559 112.395C205.342 113.345 204.218 115.03 204.188 117.45Z" fill="white"/>
<path fill-rule="evenodd" clip-rule="evenodd" d="M80.1202 23.7598C54.5314 47.4652 42.1731 76.8996 43.0467 112.062C32.0372 112.062 21.0271 112.062 10.0176 112.062C15.6999 74.8113 35.0233 47.0628 67.987 28.8152C71.9687 26.9355 76.0131 25.2504 80.1202 23.7598Z" fill="#DFD2F1"/>
<path opacity="0.948" fill-rule="evenodd" clip-rule="evenodd" d="M0.0849609 21.1219C0.0849609 18.9306 0.0849609 16.7392 0.0849609 14.5479C1.92195 11.3802 5.29227 9.11609 10.1959 7.75484C16.6706 7.07246 23.1866 6.92608 29.7437 7.31658C40.3214 9.38956 44.4782 13.9913 42.2139 21.1219C40.1815 25.0724 36.0247 27.4829 29.7437 28.3532C23.1866 28.7437 16.6706 28.5974 10.1959 27.915C5.29227 26.5537 1.92195 24.2897 0.0849609 21.1219Z" fill="#131313"/>
<path fill-rule="evenodd" clip-rule="evenodd" d="M142.847 149.132C139.885 148.901 136.964 148.452 134.084 147.784C144.073 138.177 146.432 126.942 141.162 114.081C133.104 101.844 121.982 97.7998 107.796 101.948C108.289 99.119 109.189 96.4227 110.492 93.8592C131.754 91.0747 145.348 100.062 151.273 120.822C152.633 131.568 149.825 141.005 142.847 149.132Z" fill="#4D4D71"/>
<path fill-rule="evenodd" clip-rule="evenodd" d="M110.494 93.8545C109.19 96.418 108.291 99.1142 107.798 101.943C92.7782 110.43 88.3968 122.788 94.6534 139.017C105.105 153.671 118.249 156.592 134.086 147.78C136.966 148.447 139.887 148.896 142.849 149.128C133.982 158.204 123.197 161.687 110.494 159.576C91.8608 153.449 83.2105 140.529 84.5425 120.817C87.6337 106.381 96.284 97.3933 110.494 93.8545Z" fill="#3C416A"/>
<path fill-rule="evenodd" clip-rule="evenodd" d="M14.9116 14.2816C19.1866 14.2207 23.4556 14.2816 27.7188 14.4651C32.6884 15.6978 33.6995 17.5937 30.7521 20.1534C27.8677 21.0702 24.7221 21.4371 21.3152 21.2544C16.7552 21.7682 13.1602 21.0342 10.5302 19.0525C9.50266 16.7459 10.9631 15.1558 14.9116 14.2816Z" fill="#67CB19"/>
<path fill-rule="evenodd" clip-rule="evenodd" d="M134.09 147.788C118.253 156.6 105.109 153.68 94.6573 139.026C88.4006 122.797 92.7821 110.439 107.802 101.952C121.988 97.8041 133.11 101.848 141.168 114.085C146.437 126.946 144.078 138.181 134.09 147.788Z" fill="#131313"/>
<path fill-rule="evenodd" clip-rule="evenodd" d="M128.02 139.017C118.216 137.868 112.036 132.475 109.483 122.84C108.994 119.434 109.106 116.064 109.82 112.729C115.053 110.157 120.445 110.045 125.998 112.392C134.255 118.292 136.165 125.82 131.727 134.973C130.83 136.655 129.594 138.003 128.02 139.017Z" fill="#F2CF6B"/>
<path fill-rule="evenodd" clip-rule="evenodd" d="M109.818 112.735C109.104 116.071 108.991 119.441 109.481 122.846C112.034 132.482 118.213 137.874 128.018 139.024C123.624 142.166 118.68 143.177 113.188 142.057C104.539 138.584 100.832 132.18 102.066 122.846C103.366 118.428 105.95 115.058 109.818 112.735Z" fill="#F5BA37"/>
<path fill-rule="evenodd" clip-rule="evenodd" d="M194.079 117.449C197.449 117.449 200.819 117.449 204.19 117.449C204.419 119.589 205.542 121.049 207.56 121.831C214.297 122.168 221.037 122.28 227.782 122.168C227.782 125.314 227.782 128.459 227.782 131.605C205.762 131.605 183.743 131.605 161.724 131.605C161.724 128.459 161.724 125.314 161.724 122.168C171.388 122.28 181.05 122.168 190.708 121.831C192.753 121.028 193.877 119.567 194.079 117.449Z" fill="#AA9CD5"/>
<path fill-rule="evenodd" clip-rule="evenodd" d="M8.03516 122.164C30.0548 122.164 52.0737 122.164 74.0934 122.164C74.0934 125.31 74.0934 128.455 74.0934 131.601C52.0737 131.601 30.0548 131.601 8.03516 131.601C8.03516 128.455 8.03516 125.31 8.03516 122.164Z" fill="#A79AD3"/>
<path fill-rule="evenodd" clip-rule="evenodd" d="M13.3555 142.121C23.4691 142.009 66.3056 141.784 76.4138 142.121C87.4267 164.928 105.402 173.691 130.339 168.41C143.895 164.066 153.332 155.303 158.65 142.121C181.117 141.784 203.586 141.672 226.056 141.784C220.332 178.493 201.234 205.68 168.761 223.346C162.254 223.961 140.087 231.153 133.562 230.762C81.9343 225.073 30.4821 191.031 13.3555 142.121Z" fill="white"/>
<path fill-rule="evenodd" clip-rule="evenodd" d="M47.0911 141.71C64.2177 190.62 98.5949 217.92 150.223 223.609C156.748 223.999 163.264 223.886 169.771 223.272C149.387 234.236 127.592 238.393 104.386 235.742C69.5576 230.312 42.8195 212.786 24.1729 183.165C22.1817 182.006 20.1595 181.894 18.1063 182.828C16.5755 179.991 15.2274 177.07 14.062 174.065C15.6696 172.648 16.5681 170.85 16.7582 168.672C13.4007 159.977 11.154 150.99 10.0176 141.71C22.3752 141.71 34.7335 141.71 47.0911 141.71Z" fill="#DFD2F1"/>
<path opacity="0.957" fill-rule="evenodd" clip-rule="evenodd" d="M6.23162 234.029C20.0778 233.952 33.9235 234.029 47.7684 234.259C52.8774 236.348 54.8449 240.264 53.671 246.01C52.6815 249.049 50.714 250.97 47.7684 251.769C33.9226 252.077 20.0774 252.077 6.23162 251.769C1.1226 249.681 -0.844933 245.764 0.329027 240.019C1.39674 236.972 3.36427 234.976 6.23162 234.029Z" fill="#131313"/>
<path fill-rule="evenodd" clip-rule="evenodd" d="M11.0152 240.041C21.3319 239.931 31.6479 240.041 41.9632 240.372C43.3456 242.232 43.3456 243.996 41.9632 245.669C31.6472 246.11 21.3312 246.11 11.0152 245.669C9.66162 243.888 9.66162 242.012 11.0152 240.041Z" fill="#F43E04"/>
<path opacity="0.957" fill-rule="evenodd" clip-rule="evenodd" d="M213.116 214.029C226.706 213.952 240.295 214.029 253.884 214.259C258.898 216.348 260.829 220.264 259.677 226.01C258.706 229.049 256.775 230.97 253.884 231.769C240.294 232.077 226.706 232.077 213.116 231.769C208.102 229.681 206.171 225.764 207.323 220.019C208.371 216.972 210.302 214.976 213.116 214.029Z" fill="#131313"/>
<path fill-rule="evenodd" clip-rule="evenodd" d="M218.015 220.041C228.332 219.931 238.648 220.041 248.963 220.372C250.346 222.232 250.346 223.996 248.963 225.669C238.647 226.11 228.331 226.11 218.015 225.669C216.662 223.888 216.662 222.012 218.015 220.041Z" fill="#04BBF4"/>
</svg>
