<svg width="74" height="44" viewBox="0 0 74 44" fill="none" xmlns="http://www.w3.org/2000/svg">
<g clip-path="url(#clip0_570_11824)">
<path opacity="0.954" fill-rule="evenodd" clip-rule="evenodd" d="M16.5826 0.109465C18.4105 0.0658698 20.2321 0.112979 22.0472 0.250792C23.1999 0.848674 23.5611 1.77516 23.1308 3.03024C22.8327 3.58086 22.3774 3.94203 21.7646 4.11375C19.9369 4.20442 18.1153 4.17302 16.2999 4.01953C15.2415 3.51816 14.849 2.68591 15.1222 1.52274C15.358 0.785859 15.8448 0.314767 16.5826 0.109465Z" fill="#131313"/>
<path fill-rule="evenodd" clip-rule="evenodd" d="M16.8654 1.52249C18.4047 1.50679 19.9435 1.5225 21.4821 1.5696C21.9846 1.94647 21.9846 2.32334 21.4821 2.70022C19.9433 2.76303 18.4043 2.76303 16.8654 2.70022C16.3691 2.30803 16.3691 1.91545 16.8654 1.52249Z" fill="#E5C465"/>
<path opacity="0.974" fill-rule="evenodd" clip-rule="evenodd" d="M48.2398 18.8588C48.2398 20.0836 48.2398 21.3085 48.2398 22.5333C47.2962 28.8657 43.9357 33.4038 38.1585 36.1479C32.0714 38.5073 26.3868 37.7849 21.1049 33.9808C20.571 33.5097 20.0371 33.0387 19.5032 32.5676C14.9179 32.5362 10.3327 32.5047 5.74732 32.4733C4.31064 32.0042 3.72964 31.0149 4.00428 29.5055C4.30426 28.6724 4.88527 28.1542 5.74732 27.9509C7.72591 27.9195 9.7045 27.888 11.6831 27.8566C12.1924 27.6701 12.3651 27.3089 12.2013 26.7731C12.1132 26.528 11.9405 26.3866 11.6831 26.3491C9.1032 26.3459 6.52789 26.2831 3.95717 26.1607C2.5718 25.4125 2.17922 24.2975 2.77944 22.816C3.15816 22.2573 3.67636 21.8962 4.33405 21.7324C6.88378 21.73 9.42767 21.6672 11.9657 21.544C12.3426 21.1043 12.3426 20.6647 11.9657 20.2249C11.0934 20.1071 10.214 20.0442 9.32762 20.0365C8.13233 19.7524 7.53562 18.9987 7.53747 17.7753C7.53562 16.5518 8.13233 15.7981 9.32762 15.514C10.214 15.5063 11.0934 15.4435 11.9657 15.3256C12.3426 14.8859 12.3426 14.4463 11.9657 14.0065C11.8715 13.9752 11.7773 13.9437 11.6831 13.9123C8.38544 13.8809 5.08779 13.8495 1.79015 13.8181C0.910473 13.6129 0.313757 13.0947 0 12.2635C0 11.7924 0 11.3213 0 10.8502C0.313757 10.019 0.910473 9.50082 1.79015 9.29561C7.60029 9.26424 13.4104 9.23277 19.2206 9.2014C23.3572 4.95397 28.3823 3.25804 34.2955 4.1136C40.0443 5.25037 44.2057 8.43813 46.7794 13.6768C47.5095 15.3472 47.9964 17.0746 48.2398 18.8588Z" fill="#131313"/>
<path fill-rule="evenodd" clip-rule="evenodd" d="M43.5291 19.4244C43.058 19.4244 42.5869 19.4244 42.1158 19.4244C42.1321 19.0786 41.9752 18.8431 41.6448 18.7178C40.1677 18.7021 38.6916 18.6549 37.2165 18.5765C36.4918 16.7055 35.1727 15.4649 33.2593 14.8548C30.5261 14.1433 28.2805 14.8813 26.5227 17.069C26.1957 17.5379 25.9287 18.0404 25.7218 18.5765C24.1213 18.6706 18.6031 18.7021 17.0002 18.6707C16.8781 13.7558 22 8.91907 26.0987 6.32807C31.6504 4.45298 36.7382 5.31665 41.3621 8.91907C44.0856 11.3029 45.8286 14.2708 46.5912 17.8227C46.6381 18.1037 46.6539 18.3863 46.6383 18.6707C45.7584 18.655 44.879 18.6707 44.0002 18.7178C43.6903 18.8506 43.5333 19.0862 43.5291 19.4244Z" fill="white"/>
<path fill-rule="evenodd" clip-rule="evenodd" d="M26.0985 6.32812C22.5218 9.6416 20.7944 13.7558 20.9165 18.6707C19.3776 18.6707 17.8387 18.6707 16.2998 18.6707C17.0941 13.4639 19.795 9.58535 24.4026 7.03476C24.9591 6.77203 25.5244 6.53648 26.0985 6.32812Z" fill="#DFD2F1"/>
<path fill-rule="evenodd" clip-rule="evenodd" d="M2.07324 10.7562C7.36531 10.6308 12.6729 10.6308 17.9962 10.7562C17.9845 10.8134 17.9531 10.8447 17.9019 10.8504C17.3861 10.7572 16.8522 10.7258 16.3002 10.7562C11.5579 10.7562 6.81557 10.7562 2.07324 10.7562Z" fill="#736130"/>
<path fill-rule="evenodd" clip-rule="evenodd" d="M2.07269 10.7559C6.81502 10.7559 12.2577 10.7559 17 10.7559C15.2733 13.4551 13.9291 16.7949 13.7087 20C13.3899 19.5409 12.6204 18.855 12.0598 18.7173C11.2433 18.6859 10.4268 18.6545 9.61017 18.6231C8.96081 18.3545 8.78808 17.8991 9.09197 17.2569C9.24077 17.1117 9.41351 17.0018 9.61017 16.9272C10.4268 16.8958 11.2433 16.8643 12.0598 16.8329C13.3391 16.3958 13.8886 15.5007 13.7087 14.1477C13.4731 13.284 12.9235 12.7344 12.0598 12.4989C8.7308 12.4675 5.40174 12.4361 2.07269 12.4047C1.42334 12.1361 1.25061 11.6807 1.55449 11.0385C1.69466 10.8821 1.86739 10.7879 2.07269 10.7559Z" fill="#F2CF6B"/>
<path fill-rule="evenodd" clip-rule="evenodd" d="M13.9533 21.5C14.1846 24.7694 15.1585 28.3157 17 31.0135C13.4825 31.0135 9.54737 31.0135 6.02992 31.0135C5.61019 30.9003 5.39034 30.6176 5.37039 30.1655C5.43147 29.7742 5.65131 29.5071 6.02992 29.3647C8.03991 29.3333 10.0499 29.3018 12.0599 29.2705C13.3391 28.8333 13.8887 27.9382 13.7087 26.5852C13.4732 25.7215 12.9236 25.172 12.0599 24.9364C9.57884 24.905 7.09772 24.8736 4.61664 24.8422C3.96729 24.5736 3.79456 24.1182 4.09844 23.476C4.24724 23.3308 4.41998 23.2209 4.61664 23.1463C7.09772 23.1149 9.57884 23.0834 12.0599 23.0521C12.6697 22.9055 13.6209 22.013 13.9533 21.5Z" fill="#F0CD6A"/>
<path fill-rule="evenodd" clip-rule="evenodd" d="M16.2997 10.7563C16.8516 10.726 17.3855 10.7573 17.9014 10.8505C14.4596 15.9038 13.8158 21.3057 15.9699 27.0561C16.2098 27.3092 16.5082 27.4034 16.865 27.3388C17.0279 27.7588 17.2163 28.167 17.4303 28.5636C17.166 28.8223 17.0874 29.1364 17.1948 29.5058C17.5255 29.9796 17.8552 30.4507 18.184 30.9191C17.6682 31.0122 17.1343 31.0436 16.5823 31.0133C14.7408 28.3154 13.7044 25.3319 13.4731 22.0625C13.879 21.2248 13.8476 20.4082 13.3789 19.6128C13.5994 16.4077 14.5729 13.4556 16.2997 10.7563Z" fill="#F5BA37"/>
<path opacity="0.948" fill-rule="evenodd" clip-rule="evenodd" d="M0 18.4824C0 18.0113 0 17.5403 0 17.0692C0.256769 16.3881 0.727861 15.9014 1.41328 15.6088C2.31829 15.4621 3.22907 15.4306 4.14561 15.5146C5.62412 15.9602 6.20514 16.9495 5.88865 18.4824C5.60456 19.3317 5.02355 19.8499 4.14561 20.037C3.22907 20.121 2.31829 20.0895 1.41328 19.9428C0.727861 19.6502 0.256769 19.1634 0 18.4824Z" fill="#131313"/>
<path fill-rule="evenodd" clip-rule="evenodd" d="M34.955 23.8526C34.541 23.8202 34.1327 23.7574 33.7302 23.6641C35.1263 22.3213 35.4561 20.7509 34.7195 18.9532C33.5932 17.2428 32.0386 16.6775 30.0557 17.2573C30.1246 16.8619 30.2503 16.485 30.4325 16.1267C33.4045 15.7375 35.3046 16.9937 36.1327 19.8954C36.3229 21.3975 35.9304 22.7166 34.955 23.8526Z" fill="#4D4D71"/>
<path fill-rule="evenodd" clip-rule="evenodd" d="M30.4322 16.127C30.2499 16.4853 30.1243 16.8621 30.0553 17.2576C27.9559 18.4439 27.3435 20.1712 28.218 22.4396C29.6789 24.4879 31.5161 24.8961 33.7298 23.6644C34.1323 23.7577 34.5406 23.8205 34.9546 23.8529C33.7153 25.1215 32.2078 25.6083 30.4322 25.3132C27.8277 24.4569 26.6186 22.651 26.8048 19.8957C27.2368 17.8778 28.446 16.6216 30.4322 16.127Z" fill="#3C416A"/>
<path fill-rule="evenodd" clip-rule="evenodd" d="M2.07292 16.8799C2.67047 16.8642 3.26718 16.8799 3.86307 16.927C4.55771 17.2435 4.69904 17.7302 4.28706 18.3874C3.88389 18.6227 3.44421 18.7169 2.968 18.67C2.33062 18.8019 1.82812 18.6135 1.4605 18.1047C1.31688 17.5126 1.52101 17.1043 2.07292 16.8799Z" fill="#EBC968"/>
<path fill-rule="evenodd" clip-rule="evenodd" d="M33.7305 23.6641C31.5169 24.8959 29.6796 24.4876 28.2188 22.4393C27.3442 20.1709 27.9567 18.4436 30.056 17.2573C32.0389 16.6775 33.5935 17.2428 34.7198 18.9532C35.4564 20.7509 35.1267 22.3212 33.7305 23.6641Z" fill="#131313"/>
<path fill-rule="evenodd" clip-rule="evenodd" d="M32.8817 22.4388C31.5113 22.2782 30.6476 21.5245 30.2907 20.1776C30.2223 19.7016 30.2381 19.2305 30.3378 18.7643C31.0693 18.4049 31.823 18.3892 32.5991 18.7172C33.7533 19.542 34.0202 20.5941 33.4 21.8735C33.2745 22.1087 33.1018 22.2971 32.8817 22.4388Z" fill="#F2CF6B"/>
<path fill-rule="evenodd" clip-rule="evenodd" d="M30.3385 18.7646C30.2387 19.2308 30.223 19.7019 30.2914 20.1779C30.6483 21.5248 31.512 22.2785 32.8824 22.4392C32.2683 22.8784 31.5773 23.0197 30.8096 22.8631C29.6007 22.3776 29.0825 21.4826 29.255 20.1779C29.4367 19.5604 29.7979 19.0893 30.3385 18.7646Z" fill="#F5BA37"/>
<path fill-rule="evenodd" clip-rule="evenodd" d="M42.1153 19.4238C42.5864 19.4238 43.0574 19.4238 43.5285 19.4238C43.5606 19.723 43.7176 19.927 43.9996 20.0362C44.9412 20.0834 45.8834 20.099 46.8262 20.0834C46.8262 20.5231 46.8262 20.9627 46.8262 21.4024C43.7483 21.4024 40.6706 21.4024 37.5928 21.4024C37.5928 20.9627 37.5928 20.5231 37.5928 20.0834C38.9436 20.0991 40.2941 20.0834 41.6442 20.0362C41.93 19.924 42.0871 19.7199 42.1153 19.4238Z" fill="#AA9CD5"/>
<path fill-rule="evenodd" clip-rule="evenodd" d="M16.1113 20.084C19.1892 20.084 22.2669 20.084 25.3447 20.084C25.3447 20.5237 25.3447 20.9633 25.3447 21.403C22.2669 21.403 19.1892 21.403 16.1113 21.403C16.1113 20.9633 16.1113 20.5237 16.1113 20.084Z" fill="#A79AD3"/>
<path fill-rule="evenodd" clip-rule="evenodd" d="M17 22.8164C18.4137 22.8007 24.3084 22.8164 25.7213 22.8636C27.2606 26.0514 29.7731 27.2763 33.2587 26.5381C35.1536 25.9308 36.4726 24.706 37.2159 22.8636C40.3564 22.8164 43.497 22.8007 46.6378 22.8164C45.8377 27.9475 43.1682 31.7476 38.6292 34.2169C37.7197 34.3028 35.412 35.0546 34.5 35C27.2836 34.2048 19.3939 29.6529 17 22.8164Z" fill="white"/>
<path fill-rule="evenodd" clip-rule="evenodd" d="M21.4818 22.8164C23.8757 29.6529 28.6809 33.4687 35.8972 34.2639C36.8093 34.3185 37.7201 34.3028 38.6296 34.2168C35.7804 35.7494 32.7339 36.3304 29.4904 35.9599C24.6221 35.2009 20.8848 32.7512 18.2784 28.6108C18.0001 28.4489 17.7174 28.4332 17.4304 28.5637C17.2165 28.1672 17.028 27.7589 16.8651 27.3389C17.0898 27.1408 17.2154 26.8896 17.242 26.5851C16.7727 25.3697 16.4587 24.1135 16.2998 22.8164C18.0271 22.8164 19.7545 22.8164 21.4818 22.8164Z" fill="#DFD2F1"/>
<path fill-rule="evenodd" clip-rule="evenodd" d="M18.1845 30.9189C18.2356 30.9246 18.267 30.956 18.2787 31.0132C14.1804 31.1386 10.0976 31.1386 6.03027 31.0132C9.54773 31.0132 13.0653 31.0132 16.5827 31.0132C17.1347 31.0435 17.6686 31.0121 18.1845 30.9189Z" fill="#836E37"/>
<path opacity="0.957" fill-rule="evenodd" clip-rule="evenodd" d="M4.05186 38.0791C7.03561 38.0634 10.0192 38.0791 13.0026 38.1263C14.1036 38.5533 14.5275 39.3541 14.2746 40.5288C14.0613 41.1504 13.6374 41.543 13.0026 41.7065C10.019 41.7694 7.03545 41.7694 4.05186 41.7065C2.95087 41.2796 2.52688 40.4787 2.77991 39.304C3.01003 38.681 3.43401 38.2728 4.05186 38.0791Z" fill="#131313"/>
<path fill-rule="evenodd" clip-rule="evenodd" d="M4.42809 39.4932C7.16061 39.4775 9.89295 39.4932 12.6251 39.5403C12.9912 39.8049 12.9912 40.0561 12.6251 40.2941C9.89276 40.3569 7.16043 40.3569 4.42809 40.2941C4.06954 40.0406 4.06954 39.7737 4.42809 39.4932Z" fill="#DDBD62"/>
<path opacity="0.957" fill-rule="evenodd" clip-rule="evenodd" d="M24.0255 40.3409C27.0092 40.3251 29.9928 40.3409 32.9762 40.388C34.0771 40.815 34.5011 41.6158 34.2482 42.7905C34.0349 43.4121 33.611 43.8047 32.9762 43.9683C29.9926 44.0311 27.0091 44.0311 24.0255 43.9683C22.9245 43.5413 22.5005 42.7404 22.7535 41.5657C22.9836 40.9427 23.4076 40.5345 24.0255 40.3409Z" fill="#131313"/>
<path fill-rule="evenodd" clip-rule="evenodd" d="M24.4027 41.7539C27.1352 41.7382 29.8675 41.7539 32.5997 41.8011C32.9658 42.0656 32.9658 42.3168 32.5997 42.5548C29.8673 42.6176 27.135 42.6176 24.4027 42.5548C24.0442 42.3014 24.0442 42.0344 24.4027 41.7539Z" fill="#DDBD62"/>
</g>
<g filter="url(#filter0_i_570_11824)">
<path d="M50 32V11H54.6407V28.863H59.463V32H50ZM61.3748 32V12.6154H66.2808C67.972 12.6154 69.2882 12.8308 70.2295 13.2615C71.1708 13.6764 71.8329 14.3385 72.2158 15.2479C72.5987 16.1413 72.7902 17.306 72.7902 18.7419V25.7778C72.7902 27.2296 72.5987 28.4182 72.2158 29.3436C71.8329 30.253 71.1708 30.9231 70.2295 31.3538C69.3041 31.7846 68.0039 32 66.3286 32H61.3748ZM65.6586 29.0325H66.3286C66.9828 29.0325 67.4534 28.9368 67.7406 28.7453C68.0278 28.5538 68.2033 28.2667 68.2671 27.8838C68.3469 27.5009 68.3868 27.0222 68.3868 26.4479V18C68.3868 17.4256 68.3389 16.963 68.2432 16.612C68.1634 16.261 67.9799 16.0057 67.6927 15.8462C67.4056 15.6866 66.9429 15.6068 66.3047 15.6068H65.6586V29.0325Z" fill="white"/>
</g>
<path d="M49.55 32V32.45H50H59.463H59.913V32V28.863V28.413H59.463H55.0907V11V10.55H54.6407H50H49.55V11V32ZM60.9248 32V32.45H61.3748H66.3286C68.0317 32.45 69.4071 32.2327 70.4181 31.7624C71.4557 31.2872 72.2018 30.5366 72.6306 29.5182L72.6316 29.5156C73.0449 28.517 73.2402 27.2643 73.2402 25.7778V18.7419C73.2402 17.2721 73.0451 16.0411 72.6299 15.0717C72.2007 14.0532 71.4534 13.3099 70.4139 12.851C69.3884 12.3825 67.999 12.1654 66.2808 12.1654H61.3748H60.9248V12.6154V32ZM67.8266 27.792L67.8247 27.8008L67.8232 27.8098C67.777 28.0869 67.6613 28.2574 67.491 28.3709C67.3189 28.4856 66.9614 28.5825 66.3286 28.5825H66.1086V16.0568H66.3047C66.9259 16.0568 67.2915 16.138 67.4742 16.2395C67.6381 16.3306 67.7499 16.4721 67.8044 16.7117L67.8065 16.7211L67.809 16.7304C67.89 17.0272 67.9368 17.4454 67.9368 18V26.4479C67.9368 27.0043 67.8979 27.4497 67.8266 27.792Z" stroke="black" stroke-width="0.9"/>
<defs>
<filter id="filter0_i_570_11824" x="49.0996" y="10.0996" width="26.5908" height="23.8008" filterUnits="userSpaceOnUse" color-interpolation-filters="sRGB">
<feFlood flood-opacity="0" result="BackgroundImageFix"/>
<feBlend mode="normal" in="SourceGraphic" in2="BackgroundImageFix" result="shape"/>
<feColorMatrix in="SourceAlpha" type="matrix" values="0 0 0 0 0 0 0 0 0 0 0 0 0 0 0 0 0 0 127 0" result="hardAlpha"/>
<feOffset dx="2" dy="1"/>
<feGaussianBlur stdDeviation="1.5"/>
<feComposite in2="hardAlpha" operator="arithmetic" k2="-1" k3="1"/>
<feColorMatrix type="matrix" values="0 0 0 0 0.301961 0 0 0 0 0.301961 0 0 0 0 0.443137 0 0 0 0.5 0"/>
<feBlend mode="normal" in2="shape" result="effect1_innerShadow_570_11824"/>
</filter>
<clipPath id="clip0_570_11824">
<rect width="48.2398" height="44" fill="white"/>
</clipPath>
</defs>
</svg>
