<svg width="20" height="20" viewBox="0 0 20 20" fill="none" xmlns="http://www.w3.org/2000/svg">
<g clip-path="url(#clip0_561_11794)">
<path fill-rule="evenodd" clip-rule="evenodd" d="M10 0V20.0001C4.47828 20.0001 0 15.5218 0 10C0 4.47828 4.47828 0 10 0Z" fill="#0099FF"/>
<path fill-rule="evenodd" clip-rule="evenodd" d="M10 0V20.0001C15.5218 20.0001 20 15.5218 20 10C20 4.47828 15.5218 0 10 0Z" fill="#0099FF"/>
<path fill-rule="evenodd" clip-rule="evenodd" d="M9.78262 2.82617C10.6522 2.82617 11.3913 3.56531 11.3913 4.43487C11.3913 5.30444 10.6522 6.0001 9.78262 6.0001C8.91305 6.0001 8.2174 5.30444 8.2174 4.43487C8.2174 3.56531 8.91305 2.82617 9.78262 2.82617ZM7.26087 16.348C8.17392 16.348 8.78262 16.1741 8.78262 15.0871V9.08707C8.78262 8.04359 8.17392 7.82619 7.26087 7.82619H7.17391V7.0001H11.2174V15.0001C11.2174 16.0871 11.7826 16.348 12.7392 16.348H13V17.1741H7V16.348H7.26087Z" fill="#F2F2F2"/>
<path fill-rule="evenodd" clip-rule="evenodd" d="M10 2.87012V6.00057C10.7826 5.91361 11.3913 5.21795 11.3913 4.43534C11.3913 3.60925 10.7826 2.95707 10 2.87012ZM10 7.00057V17.1745H13V16.3484H12.7391C11.7826 16.3484 11.2174 16.0876 11.2174 15.0006V7.00057H10Z" fill="#D8D8D8"/>
</g>
<defs>
<clipPath id="clip0_561_11794">
<rect width="20" height="20" fill="white"/>
</clipPath>
</defs>
</svg>
