<svg width="50" height="38" viewBox="0 0 50 38" fill="none" xmlns="http://www.w3.org/2000/svg">
<circle cx="17.6992" cy="18" r="17.5" fill="#131313"/>
<path fill-rule="evenodd" clip-rule="evenodd" d="M30.5758 16.5322C30.0711 16.5322 29.5665 16.5322 29.0618 16.5322C29.0792 16.1618 28.9111 15.9095 28.5571 15.7752C26.9747 15.7584 25.3934 15.7079 23.8131 15.6238C23.0367 13.6194 21.6236 12.2904 19.5738 11.6369C16.6458 10.8746 14.2401 11.6652 12.3569 14.0088C12.0066 14.5112 11.7206 15.0496 11.499 15.6238C9.78439 15.7246 3.7175 15.8088 2.00028 15.7752C1.86947 10.5099 7.5 5.27791 11.9027 2.50218C17.8503 0.493409 23.3008 1.41866 28.2543 5.27791C31.1719 7.83168 33.0393 11.0112 33.8562 14.8163C33.9065 15.1173 33.9233 15.4201 33.9067 15.7247C32.9641 15.708 32.0219 15.7248 31.0805 15.7752C30.7485 15.9175 30.5803 16.1699 30.5758 16.5322Z" fill="white"/>
<path fill-rule="evenodd" clip-rule="evenodd" d="M11.9973 2.50293C8.16559 6.05264 6.31504 10.4602 6.44585 15.7255C4.79727 15.7255 3.14858 15.7255 1.5 15.7255C2.35089 10.1475 5.24441 5.99238 10.1805 3.25995C10.7767 2.97848 11.3823 2.72614 11.9973 2.50293Z" fill="#DFD2F1"/>
<path opacity="0.948" fill-rule="evenodd" clip-rule="evenodd" d="M0.0126953 2.10793C0.0126953 1.7798 0.0126953 1.45166 0.0126953 1.12353C0.28777 0.649183 0.792448 0.310156 1.52673 0.10632C2.49627 0.00413915 3.47198 -0.0177801 4.45386 0.0406931C6.03779 0.351107 6.66023 1.04019 6.32117 2.10793C6.01683 2.69949 5.39439 3.06043 4.45386 3.19077C3.47198 3.24924 2.49627 3.22732 1.52673 3.12514C0.792448 2.92131 0.28777 2.58228 0.0126953 2.10793Z" fill="#131313"/>
<path fill-rule="evenodd" clip-rule="evenodd" d="M21.3902 21.2765C20.9467 21.2418 20.5093 21.1745 20.0781 21.0746C21.5737 19.636 21.927 17.9537 21.1379 16.0278C19.9313 14.1954 18.2659 13.5898 16.1416 14.211C16.2155 13.7874 16.3501 13.3836 16.5453 12.9998C19.7292 12.5828 21.7647 13.9286 22.6519 17.0372C22.8556 18.6464 22.4351 20.0595 21.3902 21.2765Z" fill="#4D4D71"/>
<path fill-rule="evenodd" clip-rule="evenodd" d="M16.5456 12.999C16.3504 13.3829 16.2158 13.7866 16.1419 14.2103C13.8928 15.4811 13.2368 17.3316 14.1736 19.7617C15.7386 21.9561 17.7069 22.3934 20.0784 21.0739C20.5096 21.1738 20.947 21.241 21.3905 21.2757C20.0628 22.6348 18.4479 23.1564 16.5456 22.8402C13.7555 21.9228 12.4602 19.9882 12.6596 17.0364C13.1225 14.8747 14.4178 13.5289 16.5456 12.999Z" fill="#3C416A"/>
<path fill-rule="evenodd" clip-rule="evenodd" d="M2.23304 1.0835C2.87318 1.07437 3.51244 1.0835 4.15082 1.11097C4.89498 1.29556 5.04638 1.57945 4.60503 1.96275C4.17311 2.10003 3.70209 2.15498 3.19193 2.12761C2.50911 2.20455 1.97078 2.09464 1.57696 1.79789C1.42309 1.45251 1.64178 1.2144 2.23304 1.0835Z" fill="#EBC968"/>
<path fill-rule="evenodd" clip-rule="evenodd" d="M20.0787 21.0751C17.7073 22.3946 15.739 21.9573 14.174 19.7629C13.2371 17.3328 13.8932 15.4824 16.1422 14.2115C18.2665 13.5903 19.932 14.1959 21.1386 16.0283C21.9277 17.9542 21.5744 19.6365 20.0787 21.0751Z" fill="#131313"/>
<path fill-rule="evenodd" clip-rule="evenodd" d="M19.17 19.7619C17.7019 19.5898 16.7766 18.7824 16.3943 17.3395C16.321 16.8296 16.3379 16.3249 16.4448 15.8254C17.2283 15.4404 18.0358 15.4235 18.8672 15.775C20.1037 16.6586 20.3896 17.7857 19.7252 19.1563C19.5908 19.4083 19.4058 19.6101 19.17 19.7619Z" fill="#F2CF6B"/>
<path fill-rule="evenodd" clip-rule="evenodd" d="M16.4444 15.8262C16.3375 16.3256 16.3207 16.8303 16.3939 17.3402C16.7763 18.7831 17.7016 19.5906 19.1697 19.7626C18.5118 20.2332 17.7715 20.3846 16.9491 20.2169C15.654 19.6967 15.0988 18.7379 15.2836 17.3402C15.4783 16.6787 15.8652 16.174 16.4444 15.8262Z" fill="#F5BA37"/>
<path fill-rule="evenodd" clip-rule="evenodd" d="M29.0617 16.5322C29.5664 16.5322 30.0711 16.5322 30.5757 16.5322C30.6101 16.8527 30.7783 17.0713 31.0804 17.1883C32.0892 17.2388 33.0985 17.2555 34.1085 17.2388C34.1085 17.7098 34.1085 18.1808 34.1085 18.6519C30.8112 18.6519 27.5141 18.6519 24.2168 18.6519C24.2168 18.1808 24.2168 17.7098 24.2168 17.2388C25.6639 17.2556 27.1107 17.2388 28.557 17.1883C28.8633 17.0681 29.0315 16.8494 29.0617 16.5322Z" fill="#AA9CD5"/>
<path fill-rule="evenodd" clip-rule="evenodd" d="M1.20312 17.2383C4.50039 17.2383 7.79756 17.2383 11.0948 17.2383C11.0948 17.7093 11.0948 18.1803 11.0948 18.6514C7.79756 18.6514 4.50039 18.6514 1.20312 18.6514C1.20312 18.1803 1.20312 17.7093 1.20312 17.2383Z" fill="#A79AD3"/>
<path fill-rule="evenodd" clip-rule="evenodd" d="M2 20.2267C3.51444 20.2099 9.92886 20.1762 11.4425 20.2267C13.0916 23.6419 15.7832 24.954 19.5173 24.1632C21.5473 23.5127 22.9604 22.2005 23.7566 20.2267C27.121 20.1762 30.4855 20.1594 33.8502 20.1762C32.9931 25.6731 30.1333 29.7441 25.2707 32.3894C24.2964 32.4815 20.9771 33.5584 20 33.5C12.2691 32.6481 4.56457 27.5506 2 20.2267Z" fill="white"/>
<path fill-rule="evenodd" clip-rule="evenodd" d="M7.05146 20.165C9.61604 27.4889 14.7638 31.5768 22.4946 32.4287C23.4717 32.4872 24.4474 32.4703 25.4218 32.3783C22.3695 34.0201 19.1058 34.6425 15.631 34.2456C10.4156 33.4324 6.41183 30.8081 3.61965 26.3726C3.32149 26.1991 3.01868 26.1823 2.71123 26.3221C2.482 25.8973 2.28013 25.4599 2.10561 25.01C2.34635 24.7978 2.48089 24.5286 2.50936 24.2025C2.0066 22.9004 1.67018 21.5546 1.5 20.165C3.35045 20.165 5.20101 20.165 7.05146 20.165Z" fill="#DFD2F1"/>
<path opacity="0.957" fill-rule="evenodd" clip-rule="evenodd" d="M0.923203 34.0043C2.97449 33.9928 5.02571 34.0043 7.0768 34.0386C7.83369 34.3495 8.12518 34.9327 7.95126 35.7881C7.80467 36.2407 7.51318 36.5266 7.0768 36.6457C5.02558 36.6914 2.97442 36.6914 0.923203 36.6457C0.166311 36.3348 -0.125175 35.7516 0.0487448 34.8962C0.206925 34.4426 0.498411 34.1453 0.923203 34.0043Z" fill="#131313"/>
<path fill-rule="evenodd" clip-rule="evenodd" d="M1.60498 34.9063C3.16813 34.8906 4.73116 34.9063 6.29409 34.9534C6.50353 35.218 6.50353 35.4692 6.29409 35.7071C4.73105 35.77 3.16802 35.77 1.60498 35.7071C1.3999 35.4537 1.3999 35.1868 1.60498 34.9063Z" fill="#DDBD62"/>
<path opacity="0.957" fill-rule="evenodd" clip-rule="evenodd" d="M31.9232 31.0043C33.9745 30.9928 36.0257 31.0043 38.0768 31.0386C38.8337 31.3495 39.1252 31.9327 38.9513 32.7881C38.8047 33.2407 38.5132 33.5266 38.0768 33.6457C36.0256 33.6914 33.9744 33.6914 31.9232 33.6457C31.1663 33.3348 30.8748 32.7516 31.0487 31.8962C31.2069 31.4426 31.4984 31.1453 31.9232 31.0043Z" fill="#131313"/>
<path fill-rule="evenodd" clip-rule="evenodd" d="M32.605 31.9063C34.1681 31.8906 35.7312 31.9063 37.2941 31.9534C37.5035 32.218 37.5035 32.4692 37.2941 32.7071C35.7311 32.77 34.168 32.77 32.605 32.7071C32.3999 32.4537 32.3999 32.1868 32.605 31.9063Z" fill="#DDBD62"/>
<path d="M25.05 29.7998V30.2498H25.5H34.963H35.413V29.7998V26.6628V26.2128H34.963H30.5907V8.7998V8.3498H30.1407H25.5H25.05V8.7998V29.7998ZM36.4248 29.7998V30.2498H36.8748H41.8286C43.5317 30.2498 44.9071 30.0325 45.9181 29.5622C46.9557 29.087 47.7018 28.3364 48.1306 27.318L48.1316 27.3155C48.5449 26.3168 48.7402 25.0641 48.7402 23.5776V16.5417C48.7402 15.072 48.5451 13.8409 48.1299 12.8715C47.7007 11.853 46.9534 11.1097 45.9139 10.6508C44.8884 10.1823 43.499 9.96519 41.7808 9.96519H36.8748H36.4248V10.4152V29.7998ZM43.3266 25.5918L43.3247 25.6007L43.3232 25.6096C43.277 25.8867 43.1613 26.0572 42.991 26.1707C42.8189 26.2854 42.4614 26.3823 41.8286 26.3823H41.6086V13.8566H41.8047C42.4259 13.8566 42.7915 13.9378 42.9742 14.0393C43.1381 14.1304 43.2499 14.2719 43.3044 14.5115L43.3065 14.5209L43.309 14.5302C43.39 14.827 43.4368 15.2452 43.4368 15.7998V24.2477C43.4368 24.8041 43.3979 25.2495 43.3266 25.5918Z" fill="white" stroke="black" stroke-width="0.9"/>
</svg>
