<svg width="18" height="18" viewBox="0 0 18 18" fill="none" xmlns="http://www.w3.org/2000/svg">
<path d="M9.00037 17.7346C7.2728 17.7346 5.58403 17.2223 4.14761 16.2625C2.71119 15.3028 1.59163 13.9386 0.930521 12.3425C0.26941 10.7465 0.0964327 8.99019 0.433464 7.29582C0.770496 5.60144 1.6024 4.04506 2.82397 2.82349C4.04555 1.60191 5.60193 0.770008 7.2963 0.432976C8.99068 0.0959444 10.7469 0.268921 12.343 0.930033C13.9391 1.59114 15.3033 2.7107 16.263 4.14712C17.2228 5.58354 17.7351 7.27231 17.7351 8.99988C17.7325 11.3157 16.8114 13.5359 15.1739 15.1734C13.5363 16.8109 11.3162 17.732 9.00037 17.7346Z" fill="#FFC83D"/>
<path d="M8.99993 6.2147C9.49123 6.2147 9.88951 5.81643 9.88951 5.32513C9.88951 4.83382 9.49123 4.43555 8.99993 4.43555C8.50863 4.43555 8.11035 4.83382 8.11035 5.32513C8.11035 5.81643 8.50863 6.2147 8.99993 6.2147Z" fill="black"/>
<path d="M9.86911 12.5902C9.66614 12.5202 9.49328 12.3828 9.37932 12.2008L9.7919 8.58612C9.7919 8.57759 9.7919 8.56906 9.7919 8.56054C9.7919 8.55201 9.79569 8.5468 9.79663 8.53922C9.82183 8.32194 9.77252 8.10253 9.65679 7.91692C9.54105 7.73131 9.36573 7.59048 9.15953 7.51749C9.09012 7.49443 9.01854 7.47856 8.9459 7.47012C8.7531 7.44717 8.55787 7.48313 8.3859 7.57326C8.21392 7.66339 8.07326 7.80347 7.98242 7.97506C8.03291 7.98213 8.08258 7.99419 8.13068 8.01106C8.33265 8.08263 8.505 8.21947 8.62047 8.39996L8.20221 12.062C8.17668 12.2786 8.2253 12.4974 8.34015 12.6828C8.45499 12.8682 8.62929 13.0092 8.83458 13.0828C8.83884 13.088 8.83932 13.0828 8.83932 13.0828C8.90872 13.1059 8.98031 13.1217 9.05295 13.1302C9.24575 13.1531 9.44098 13.1172 9.61295 13.027C9.78492 12.9369 9.92558 12.7968 10.0164 12.6252C9.96629 12.6184 9.91694 12.6067 9.86911 12.5902Z" fill="black"/>
</svg>
