<svg width="16" height="18" viewBox="0 0 16 18" fill="none" xmlns="http://www.w3.org/2000/svg">
<g clip-path="url(#clip0_328_8604)">
<path d="M4.24432 0.471455C2.66406 1.03702 0.767739 3.01651 0.325265 4.58754C-0.275235 6.75555 -0.0856035 7.98095 1.24182 10.4946C2.37961 12.5998 2.50603 13.1025 2.50603 15.0506V17.2186L4.65519 17.4385C5.82458 17.5328 7.59448 17.6899 8.60585 17.7841L10.4074 17.9727V17.03C10.4074 16.1503 10.4706 16.1188 11.6716 16.1188C13.3466 16.1188 13.8207 15.6475 14.0736 13.7623C14.2948 12.2227 14.4212 12.0028 15.5274 11.2173C16.0647 10.8716 16.0331 10.7459 15.1481 9.42629C14.4528 8.42083 14.2 7.63532 14.2 6.66129C14.2 3.83344 12.3037 1.25697 9.64882 0.471455C8.79548 0.220091 7.97374 0.000148773 7.81572 0.000148773C7.6893 0.000148773 7.56288 1.35123 7.56288 2.98509C7.56288 5.62441 7.65769 6.0643 8.22659 6.62987C8.79548 7.19544 8.8903 7.54106 8.73227 8.79788C8.44782 11.0602 9.55401 12.3798 11.6716 12.4112C12.9358 12.4112 13.2834 13.291 12.0824 13.4481C10.8498 13.6366 9.04832 12.4112 7.75251 10.5574C7.0888 9.58339 6.42509 8.79788 6.29866 8.79788C5.69816 8.79788 5.72977 9.30061 6.36187 9.96044L7.02559 10.6831H6.20385C4.18111 10.6831 3.32777 7.91811 4.87643 6.47276C5.63495 5.75009 5.69816 5.56157 5.60335 2.89083L5.50853 0.0629883L4.24432 0.471455Z" fill="#FFC83D"/>
</g>
<defs>
<clipPath id="clip0_328_8604">
<rect width="15.8824" height="18" fill="white"/>
</clipPath>
</defs>
</svg>
