<svg width="52" height="48" viewBox="0 0 52 48" fill="none" xmlns="http://www.w3.org/2000/svg">
<g clip-path="url(#clip0_328_10917)">
<path opacity="0.954" fill-rule="evenodd" clip-rule="evenodd" d="M17.8748 0.118502C19.8453 0.0715091 21.8089 0.12229 23.7655 0.270846C25.008 0.915331 25.3974 1.91404 24.9334 3.26694C24.6122 3.86048 24.1213 4.2498 23.4608 4.43491C21.4907 4.53265 19.5271 4.4988 17.5702 4.33335C16.4292 3.7929 16.0061 2.89577 16.3006 1.64194C16.5548 0.847619 17.0796 0.339807 17.8748 0.118502Z" fill="#131313"/>
<path fill-rule="evenodd" clip-rule="evenodd" d="M18.1796 1.64209C19.8388 1.62517 21.4976 1.6421 23.1562 1.69287C23.6978 2.09912 23.6978 2.50537 23.1562 2.91162C21.4973 2.97933 19.8384 2.97933 18.1796 2.91162C17.6446 2.48886 17.6446 2.06568 18.1796 1.64209Z" fill="#E5C465"/>
<path opacity="0.974" fill-rule="evenodd" clip-rule="evenodd" d="M52 20.3296C52 21.6499 52 22.9702 52 24.2905C50.9829 31.1165 47.3604 36.0084 41.1328 38.9663C34.5713 41.5096 28.4436 40.731 22.75 36.6304C22.1744 36.1226 21.599 35.6148 21.0234 35.1069C16.0807 35.0731 11.1381 35.0392 6.19531 35.0054C4.64665 34.4997 4.02035 33.4333 4.31641 31.8062C4.63976 30.9081 5.26607 30.3495 6.19531 30.1304C8.32812 30.0966 10.4609 30.0626 12.5938 30.0288C13.1428 29.8277 13.329 29.4383 13.1523 28.8608C13.0574 28.5966 12.8712 28.4442 12.5938 28.4038C9.81277 28.4004 7.03673 28.3326 4.26562 28.2007C2.77226 27.3942 2.34908 26.1923 2.99609 24.5952C3.40433 23.9931 3.96293 23.6038 4.67188 23.4272C7.42035 23.4246 10.1625 23.3569 12.8984 23.2241C13.3047 22.7501 13.3047 22.2762 12.8984 21.8022C11.9581 21.6752 11.0102 21.6075 10.0547 21.5991C8.76622 21.2929 8.123 20.4804 8.125 19.1616C8.123 17.8428 8.76622 17.0303 10.0547 16.7241C11.0102 16.7158 11.9581 16.6481 12.8984 16.521C13.3047 16.047 13.3047 15.5731 12.8984 15.0991C12.7969 15.0653 12.6953 15.0314 12.5938 14.9976C9.03906 14.9637 5.48438 14.9298 1.92969 14.896C0.981442 14.6748 0.338213 14.1162 0 13.2202C0 12.7124 0 12.2046 0 11.6968C0.338213 10.8008 0.981442 10.2422 1.92969 10.021C8.19271 9.98718 14.4557 9.95326 20.7188 9.91944C25.1779 5.34094 30.5946 3.51281 36.9688 4.43506C43.1657 5.66044 47.6514 9.09668 50.4258 14.7437C51.2128 16.5443 51.7376 18.4063 52 20.3296Z" fill="#131313"/>
<path fill-rule="evenodd" clip-rule="evenodd" d="M46.922 20.9392C46.4142 20.9392 45.9063 20.9392 45.3985 20.9392C45.4161 20.5665 45.2469 20.3126 44.8907 20.1775C43.2985 20.1606 41.7073 20.1098 40.1173 20.0252C39.3361 18.0084 37.9142 16.6711 35.8517 16.0135C32.9054 15.2465 30.4848 16.042 28.5899 18.4002C28.2374 18.9057 27.9497 19.4474 27.7267 20.0252C26.0014 20.1266 19.5601 20.1606 17.8323 20.1267C17.7006 14.8287 23.5584 10.4446 28.1329 6.82206C34.1174 4.80082 39.6018 5.73181 44.586 9.61503C47.5218 12.1847 49.4007 15.3839 50.2227 19.2127C50.2733 19.5155 50.2903 19.8202 50.2735 20.1267C49.325 20.1099 48.3771 20.1267 47.4298 20.1775C47.0957 20.3207 46.9264 20.5746 46.922 20.9392Z" fill="white"/>
<path fill-rule="evenodd" clip-rule="evenodd" d="M28.1328 6.82129C24.2773 10.393 22.4152 14.828 22.5469 20.126C20.8881 20.126 19.2291 20.126 17.5703 20.126C18.4265 14.5133 21.338 10.3324 26.3047 7.58301C26.9046 7.29979 27.514 7.04588 28.1328 6.82129Z" fill="#DFD2F1"/>
<path fill-rule="evenodd" clip-rule="evenodd" d="M2.23438 11.5955C7.93895 11.4603 13.6603 11.4603 19.3984 11.5955C19.3858 11.6572 19.352 11.691 19.2969 11.6971C18.7408 11.5966 18.1653 11.5628 17.5703 11.5955C12.4584 11.5955 7.34635 11.5955 2.23438 11.5955Z" fill="#736130"/>
<path fill-rule="evenodd" clip-rule="evenodd" d="M2.23477 11.5947C7.34674 11.5947 12.8881 11.5947 18 11.5947C16.1387 14.5044 15.0154 18.045 14.7777 21.5C14.4341 21.0051 13.6047 20.3251 13.0004 20.1768C12.1201 20.1429 11.24 20.109 10.3598 20.0752C9.6598 19.7856 9.4736 19.2948 9.80117 18.6025C9.96157 18.446 10.1478 18.3275 10.3598 18.2471C11.24 18.2133 12.1201 18.1793 13.0004 18.1455C14.3793 17.6743 14.9717 16.7094 14.7777 15.251C14.5238 14.32 13.9314 13.7275 13.0004 13.4736C9.41185 13.4398 5.8233 13.4059 2.23477 13.3721C1.5348 13.0825 1.3486 12.5917 1.67617 11.8994C1.82727 11.7308 2.01346 11.6293 2.23477 11.5947Z" fill="#F2CF6B"/>
<path opacity="0.948" fill-rule="evenodd" clip-rule="evenodd" d="M0 19.9234C0 19.4156 0 18.9078 0 18.4C0.276783 17.6659 0.784596 17.1412 1.52344 16.8257C2.499 16.6676 3.48077 16.6337 4.46875 16.7242C6.06251 17.2046 6.68881 18.271 6.34766 19.9234C6.04143 20.8389 5.41512 21.3975 4.46875 21.5992C3.48077 21.6897 2.499 21.6558 1.52344 21.4976C0.784596 21.1822 0.276783 20.6575 0 19.9234Z" fill="#131313"/>
<path fill-rule="evenodd" clip-rule="evenodd" d="M37.6797 25.7121C37.2334 25.6772 36.7932 25.6096 36.3594 25.509C37.8643 24.0614 38.2198 22.3687 37.4258 20.4309C36.2117 18.5871 34.5359 17.9777 32.3984 18.6028C32.4728 18.1765 32.6083 17.7702 32.8047 17.384C36.0083 16.9644 38.0565 18.3186 38.9492 21.4465C39.1542 23.0657 38.7311 24.4876 37.6797 25.7121Z" fill="#4D4D71"/>
<path fill-rule="evenodd" clip-rule="evenodd" d="M32.8043 17.3838C32.6078 17.77 32.4724 18.1763 32.398 18.6025C30.135 19.8813 29.4748 21.7433 30.4175 24.1885C31.9923 26.3964 33.9727 26.8365 36.3589 25.5088C36.7928 25.6093 37.233 25.677 37.6792 25.7119C36.3433 27.0795 34.7183 27.6042 32.8043 27.2861C29.9968 26.363 28.6934 24.4164 28.8941 21.4463C29.3599 19.2711 30.6632 17.917 32.8043 17.3838Z" fill="#3C416A"/>
<path fill-rule="evenodd" clip-rule="evenodd" d="M2.23448 18.1967C2.8786 18.1799 3.52183 18.1967 4.16417 18.2475C4.91295 18.5887 5.06529 19.1133 4.6212 19.8217C4.1866 20.0754 3.71265 20.177 3.19932 20.1264C2.51226 20.2686 1.97059 20.0655 1.57432 19.5171C1.4195 18.8787 1.63955 18.4387 2.23448 18.1967Z" fill="#EBC968"/>
<path fill-rule="evenodd" clip-rule="evenodd" d="M36.3592 25.5088C33.973 26.8365 31.9925 26.3965 30.4178 24.1885C29.4751 21.7433 30.1352 19.8814 32.3982 18.6026C34.5357 17.9776 36.2115 18.5869 37.4256 20.4307C38.2196 22.3685 37.8641 24.0613 36.3592 25.5088Z" fill="#131313"/>
<path fill-rule="evenodd" clip-rule="evenodd" d="M35.4454 24.1886C33.9681 24.0155 33.0371 23.203 32.6524 21.7511C32.5787 21.2381 32.5956 20.7302 32.7032 20.2277C33.4916 19.8403 34.3041 19.8233 35.1407 20.1769C36.3848 21.066 36.6725 22.2002 36.004 23.5793C35.8688 23.8328 35.6826 24.0359 35.4454 24.1886Z" fill="#F2CF6B"/>
<path fill-rule="evenodd" clip-rule="evenodd" d="M32.7028 20.2275C32.5952 20.7301 32.5783 21.2379 32.652 21.751C33.0367 23.2028 33.9678 24.0153 35.445 24.1885C34.783 24.6619 34.0381 24.8143 33.2106 24.6455C31.9075 24.1221 31.3489 23.1573 31.5348 21.751C31.7307 21.0853 32.12 20.5775 32.7028 20.2275Z" fill="#F5BA37"/>
<path fill-rule="evenodd" clip-rule="evenodd" d="M45.3984 20.9385C45.9062 20.9385 46.4141 20.9385 46.9219 20.9385C46.9564 21.2609 47.1257 21.4809 47.4297 21.5986C48.4447 21.6494 49.4603 21.6663 50.4766 21.6494C50.4766 22.1234 50.4766 22.5973 50.4766 23.0713C47.1588 23.0713 43.8412 23.0713 40.5234 23.0713C40.5234 22.5973 40.5234 22.1234 40.5234 21.6494C41.9795 21.6664 43.4353 21.6494 44.8906 21.5986C45.1988 21.4777 45.3681 21.2576 45.3984 20.9385Z" fill="#AA9CD5"/>
<path fill-rule="evenodd" clip-rule="evenodd" d="M17.3672 21.6494C20.6849 21.6494 24.0026 21.6494 27.3203 21.6494C27.3203 22.1234 27.3203 22.5973 27.3203 23.0713C24.0026 23.0713 20.6849 23.0713 17.3672 23.0713C17.3672 22.5973 17.3672 22.1234 17.3672 21.6494Z" fill="#A79AD3"/>
<path fill-rule="evenodd" clip-rule="evenodd" d="M15 23.3125C15.2493 26.8367 16.7372 30.5919 18.7223 33.5C14.9306 33.5 10.292 33.4307 6.50039 33.4307C6.04795 33.3086 5.81096 33.0039 5.78945 32.5166C5.8553 32.0947 6.09227 31.8069 6.50039 31.6533C8.66705 31.6195 10.8338 31.5856 13.0004 31.5518C14.3793 31.0805 14.9717 30.1157 14.7777 28.6572C14.5238 27.7262 13.9314 27.1338 13.0004 26.8799C10.3259 26.8461 7.65143 26.8121 4.97695 26.7783C4.27698 26.4888 4.09079 25.9979 4.41836 25.3057C4.57876 25.1492 4.76496 25.0306 4.97695 24.9502C7.65143 24.9164 10.3259 24.8825 13.0004 24.8486C13.6577 24.6907 14.6417 23.8655 15 23.3125Z" fill="#F0CD6A"/>
<path fill-rule="evenodd" clip-rule="evenodd" d="M18 24.646C19.5238 24.629 26.2035 24.5952 27.7265 24.646C29.3859 28.0824 32.0942 29.4027 35.8515 28.6069C37.8941 27.9524 39.3159 26.6321 40.1172 24.646C43.5024 24.5952 46.8878 24.5783 50.2734 24.5952C49.4109 30.1262 46.5334 34.2225 41.6406 36.8843C40.6602 36.9769 39.4831 37.5588 38.5 37.5C30.7211 36.6428 20.5805 32.0154 18 24.646Z" fill="white"/>
<path fill-rule="evenodd" clip-rule="evenodd" d="M19.6016 33.3291C19.6567 33.3352 19.6905 33.369 19.7031 33.4307C15.2854 33.5658 10.8844 33.5658 6.5 33.4307C10.2916 33.4307 14.0834 33.4307 17.875 33.4307C18.47 33.4634 19.0455 33.4295 19.6016 33.3291Z" fill="#836E37"/>
<path fill-rule="evenodd" clip-rule="evenodd" d="M23.1562 24.5947C25.7368 31.9641 30.9164 36.0774 38.6953 36.9346C39.6784 36.9934 40.6602 36.9764 41.6406 36.8838C38.5694 38.5358 35.2855 39.1621 31.7891 38.7627C26.5413 37.9445 22.5126 35.3039 19.7031 30.8408C19.4031 30.6662 19.0984 30.6494 18.7891 30.79C18.5584 30.3626 18.3553 29.9225 18.1797 29.4697C18.4219 29.2562 18.5573 28.9854 18.5859 28.6572C18.0801 27.3471 17.7415 25.9929 17.5703 24.5947C19.4323 24.5947 21.2943 24.5947 23.1562 24.5947Z" fill="#DFD2F1"/>
<path opacity="0.957" fill-rule="evenodd" clip-rule="evenodd" d="M4.36747 41.0484C7.58379 41.0314 10.7999 41.0484 14.0159 41.0991C15.2027 41.5594 15.6597 42.4227 15.387 43.689C15.1572 44.359 14.7001 44.7822 14.0159 44.9585C10.7997 45.0263 7.58362 45.0263 4.36747 44.9585C3.18066 44.4982 2.72363 43.6349 2.99637 42.3687C3.24443 41.6971 3.70146 41.2571 4.36747 41.0484Z" fill="#131313"/>
<path fill-rule="evenodd" clip-rule="evenodd" d="M4.77327 42.5718C7.71878 42.5548 10.6641 42.5718 13.6092 42.6226C14.0039 42.9078 14.0039 43.1785 13.6092 43.4351C10.6639 43.5028 7.71859 43.5028 4.77327 43.4351C4.38677 43.1619 4.38677 42.8741 4.77327 42.5718Z" fill="#DDBD62"/>
<path opacity="0.957" fill-rule="evenodd" clip-rule="evenodd" d="M25.8987 43.4859C29.115 43.4689 32.3311 43.4859 35.5471 43.5366C36.7339 43.9969 37.1909 44.8602 36.9182 46.1265C36.6884 46.7965 36.2313 47.2197 35.5471 47.396C32.3309 47.4638 29.1149 47.4638 25.8987 47.396C24.7119 46.9357 24.2549 46.0724 24.5276 44.8062C24.7756 44.1346 25.2326 43.6946 25.8987 43.4859Z" fill="#131313"/>
<path fill-rule="evenodd" clip-rule="evenodd" d="M26.3045 45.0093C29.25 44.9923 32.1953 45.0093 35.1404 45.0601C35.5351 45.3453 35.5351 45.616 35.1404 45.8726C32.1951 45.9403 29.2498 45.9403 26.3045 45.8726C25.918 45.5994 25.918 45.3116 26.3045 45.0093Z" fill="#DDBD62"/>
<path fill-rule="evenodd" clip-rule="evenodd" d="M17.5703 11.5951C18.1653 11.5624 18.7408 11.5962 19.2969 11.6966C15.5868 17.1438 14.8928 22.9667 17.2148 29.1654C17.4734 29.4382 17.7951 29.5397 18.1797 29.4701C18.3553 29.9228 18.5584 30.3629 18.7891 30.7904C18.5042 31.0693 18.4195 31.4078 18.5352 31.806C18.8916 32.3168 19.2471 32.8246 19.6016 33.3295C19.0455 33.4299 18.47 33.4637 17.875 33.431C15.89 30.5229 14.7728 27.3068 14.5234 23.7826C14.961 22.8796 14.9271 21.9993 14.4219 21.1419C14.6595 17.687 15.709 14.5047 17.5703 11.5951Z" fill="#F5BA37"/>
</g>
<defs>
<clipPath id="clip0_328_10917">
<rect width="52" height="47.4297" fill="white"/>
</clipPath>
</defs>
</svg>
