<?xml version="1.0" encoding="utf-8"?><svg xmlns="http://www.w3.org/2000/svg" xmlns:xlink="http://www.w3.org/1999/xlink"><symbol viewBox="0 0 34 34" id="icon-discord" xmlns="http://www.w3.org/2000/svg"><path d="M28.273 7.379a.08.08 0 00-.04-.037 25.769 25.769 0 00-6.358-1.972.097.097 0 00-.103.049c-.29.528-.555 1.07-.791 1.625a23.792 23.792 0 00-7.142 0 16.445 16.445 0 00-.803-1.625.101.101 0 00-.103-.049 25.697 25.697 0 00-6.358 1.972.09.09 0 00-.042.036c-4.05 6.047-5.16 11.946-4.615 17.772a.106.106 0 00.04.073 25.907 25.907 0 007.8 3.941.1.1 0 00.11-.036 18.503 18.503 0 001.596-2.594.1.1 0 00.004-.081.098.098 0 00-.058-.057 17.062 17.062 0 01-2.437-1.16.101.101 0 01-.04-.129.1.1 0 01.03-.038c.164-.122.328-.25.484-.379a.097.097 0 01.101-.014c5.113 2.334 10.647 2.334 15.699 0a.096.096 0 01.102.013c.156.129.32.258.485.38a.1.1 0 01-.008.166c-.779.455-1.595.843-2.438 1.16a.1.1 0 00-.054.139c.468.902 1 1.769 1.595 2.593a.099.099 0 00.11.037 25.82 25.82 0 007.812-3.941.1.1 0 00.04-.072c.652-6.735-1.09-12.586-4.617-17.772zM12.228 21.603c-1.54 0-2.808-1.413-2.808-3.148 0-1.734 1.244-3.147 2.808-3.147 1.576 0 2.832 1.425 2.807 3.147 0 1.735-1.244 3.148-2.807 3.148zm10.38 0c-1.54 0-2.808-1.413-2.808-3.148 0-1.734 1.244-3.147 2.807-3.147 1.576 0 2.832 1.425 2.808 3.147 0 1.735-1.232 3.148-2.808 3.148z"/></symbol><symbol viewBox="0 0 34 34" id="icon-telegram" xmlns="http://www.w3.org/2000/svg"><path d="M29.914 4.81c-.458-.389-1.177-.444-1.92-.146h-.002c-.782.314-22.137 9.474-23.006 9.848-.158.055-1.539.57-1.397 1.718.127 1.035 1.237 1.463 1.373 1.513l5.429 1.859c.36 1.198 1.688 5.622 1.982 6.567.183.59.481 1.363 1.004 1.523.46.177.916.015 1.212-.217l3.319-3.079 5.358 4.18.128.075a2.58 2.58 0 001.045.242c.257 0 .503-.048.74-.145.802-.33 1.123-1.094 1.157-1.18l4.002-20.804c.244-1.112-.095-1.677-.424-1.955zM15.18 20.344l-1.832 4.884-1.831-6.105 14.04-10.377-10.378 11.6z"/></symbol><symbol viewBox="0 0 34 34" id="icon-vk" xmlns="http://www.w3.org/2000/svg"><g clip-path="url(#cclip0_328_8514)"><path d="M33.82 24.82a2.356 2.356 0 00-.115-.221c-.59-1.063-1.718-2.367-3.382-3.913l-.035-.035-.017-.018-.018-.018h-.018c-.755-.72-1.233-1.204-1.434-1.451-.366-.473-.448-.95-.248-1.434.142-.366.673-1.139 1.593-2.32.484-.625.868-1.126 1.15-1.504 2.043-2.714 2.928-4.449 2.656-5.204l-.105-.177c-.071-.106-.254-.203-.549-.292-.295-.089-.673-.103-1.133-.044l-5.098.035c-.083-.03-.2-.027-.354.009l-.23.053-.09.045-.07.053a.788.788 0 00-.195.185 1.24 1.24 0 00-.176.31 28.898 28.898 0 01-1.895 3.983 37.693 37.693 0 01-1.203 1.903c-.366.537-.673.933-.92 1.186a6.43 6.43 0 01-.674.61c-.2.154-.354.22-.46.196a13.086 13.086 0 01-.3-.071 1.176 1.176 0 01-.399-.434 1.942 1.942 0 01-.204-.69 7.634 7.634 0 01-.062-.717c-.005-.2-.003-.484.01-.85.012-.366.017-.614.017-.744 0-.448.009-.935.027-1.46.017-.525.032-.941.044-1.248.012-.307.018-.631.018-.974 0-.342-.021-.61-.063-.805a2.756 2.756 0 00-.185-.567.954.954 0 00-.363-.425c-.16-.1-.357-.18-.593-.239-.625-.141-1.422-.218-2.39-.23-2.195-.023-3.605.118-4.23.425-.248.13-.473.307-.673.531-.213.26-.242.402-.089.425.708.106 1.21.36 1.505.761l.106.213c.083.153.165.425.248.814.082.39.136.82.16 1.292.058.862.058 1.6 0 2.213a26.27 26.27 0 01-.17 1.434c-.052.342-.132.62-.238.832a3.514 3.514 0 01-.213.39.302.302 0 01-.088.088 1.325 1.325 0 01-.478.088c-.165 0-.366-.082-.602-.248a4.243 4.243 0 01-.734-.681c-.254-.29-.54-.694-.86-1.213a21.157 21.157 0 01-.99-1.84l-.284-.514a44.19 44.19 0 01-.725-1.443 27.814 27.814 0 01-.815-1.832 1.167 1.167 0 00-.424-.567l-.089-.053a1.211 1.211 0 00-.283-.15 1.879 1.879 0 00-.407-.115l-4.85.035c-.496 0-.833.112-1.01.336l-.07.106A.573.573 0 000 8.914c0 .13.035.289.106.478a58.406 58.406 0 002.31 4.815c.832 1.546 1.555 2.791 2.169 3.735a44.14 44.14 0 001.876 2.673c.638.838 1.06 1.375 1.266 1.61.207.237.369.414.487.532l.442.424c.284.284.7.623 1.248 1.018.55.396 1.157.785 1.824 1.17.667.382 1.443.695 2.328.937.885.242 1.746.34 2.584.292h2.036c.413-.035.726-.165.938-.39l.07-.088c.048-.07.093-.18.133-.327.042-.148.063-.31.063-.487a5.832 5.832 0 01.114-1.372c.089-.407.19-.713.302-.92a2.26 2.26 0 01.38-.522c.142-.142.242-.227.302-.257.058-.03.105-.05.14-.062.284-.094.617-.003 1.001.275.384.277.744.62 1.08 1.027.336.407.74.864 1.213 1.371.472.508.885.885 1.239 1.133l.354.213c.236.142.543.271.92.39.378.117.708.147.992.088l4.531-.07c.449 0 .797-.075 1.045-.222.247-.148.395-.31.442-.487.048-.177.05-.378.01-.602a2.228 2.228 0 00-.125-.47z"/></g><defs><clipPath id="cclip0_328_8514"><path d="M0 0h34v34H0z"/></clipPath></defs></symbol><symbol viewBox="0 0 12 12" id="time" xmlns="http://www.w3.org/2000/svg"><path d="M9.37.8h.994V0H1.09v.8h.993v2.166L4.597 6 2.084 9.034V11.2h-.993v.8h9.273v-.8H9.37V9.034L6.858 6 9.37 2.966V.8zM4.54 11.2l1.187-1.434L6.915 11.2H4.54zm4.168-8.566L5.92 6l2.787 3.366V11.2H7.85L5.727 8.634 3.603 11.2h-.856V9.366L5.533 6 2.747 2.634V.8h5.96v1.834z"/></symbol><symbol viewBox="0 0 12 12" id="user" xmlns="http://www.w3.org/2000/svg"><path d="M6 6.4A3.2 3.2 0 116 0a3.2 3.2 0 010 6.4zM6 .8a2.4 2.4 0 100 4.8A2.4 2.4 0 006 .8zM8.8 12H3.2a2 2 0 01-2-2V8.4a.4.4 0 01.196-.344l2-1.2a.4.4 0 01.4.688L2 8.628V10a1.2 1.2 0 001.2 1.2h5.6A1.2 1.2 0 0010 10V8.628L8.196 7.544a.4.4 0 11.4-.688l2 1.2a.4.4 0 01.204.344V10a2 2 0 01-2 2z"/></symbol></svg>