<svg width="24" height="24" viewBox="0 0 24 24" fill="none" xmlns="http://www.w3.org/2000/svg">
<path d="M17.4571 3L21.0001 3.003L21.0021 6.526L15.5351 11.992L18.3631 14.821L19.7781 13.407L21.1921 14.821L18.7181 17.296L21.5461 20.125L20.1321 21.539L17.3031 18.71L14.8281 21.185L13.4141 19.771L14.8281 18.356L11.9991 15.528L9.1711 18.356L10.5861 19.771L9.1721 21.185L6.6971 18.71L3.8681 21.539L2.4541 20.125L5.2831 17.295L2.8081 14.821L4.2221 13.407L5.6361 14.82L8.4631 11.992L3.0031 6.532L3.0001 3L6.5461 3.003L11.9991 8.457L17.4571 3ZM9.8771 13.406L7.0501 16.234L7.7581 16.941L10.5851 14.113L9.8781 13.406H9.8771ZM19.0011 5.001H18.2841L13.4141 9.87L14.1201 10.577L19.0011 5.698V5.001ZM5.0011 5.001V5.701L16.2421 16.942L16.9491 16.235L5.7161 5.002L5.0011 5.001Z" fill="#67CB19"/>
</svg>
